<mxfile host="Electron" modified="2024-04-15T15:14:18.794Z" agent="Mozilla/5.0 (Windows NT 10.0; Win64; x64) AppleWebKit/537.36 (KHTML, like Gecko) draw.io/24.2.5 Chrome/120.0.6099.109 Electron/28.1.0 Safari/537.36" etag="bsG4gyNxHdY45SuoLqxX" version="24.2.5" type="device" pages="5">
  <diagram id="veKBulY5tzNOZd7ujKv1" name="2pl+2pc-tm">
    <mxGraphModel dx="392" dy="548" grid="1" gridSize="10" guides="1" tooltips="1" connect="1" arrows="1" fold="1" page="1" pageScale="1" pageWidth="850" pageHeight="1100" math="0" shadow="0">
      <root>
        <mxCell id="0" />
        <mxCell id="1" parent="0" />
        <mxCell id="OE5QwkPZC0eoHLInYiNr-5" style="edgeStyle=orthogonalEdgeStyle;rounded=0;orthogonalLoop=1;jettySize=auto;html=1;exitX=0.5;exitY=1;exitDx=0;exitDy=0;entryX=0.5;entryY=0;entryDx=0;entryDy=0;" parent="1" source="AQF8qApTiSd5VkZApyqo-2" target="AQF8qApTiSd5VkZApyqo-5" edge="1">
          <mxGeometry relative="1" as="geometry" />
        </mxCell>
        <mxCell id="OE5QwkPZC0eoHLInYiNr-6" value="&lt;font color=&quot;#ff9933&quot;&gt;user_commit&lt;/font&gt;" style="edgeLabel;html=1;align=center;verticalAlign=middle;resizable=0;points=[];" parent="OE5QwkPZC0eoHLInYiNr-5" vertex="1" connectable="0">
          <mxGeometry x="-0.2533" relative="1" as="geometry">
            <mxPoint as="offset" />
          </mxGeometry>
        </mxCell>
        <mxCell id="AQF8qApTiSd5VkZApyqo-2" value="Init" style="ellipse;whiteSpace=wrap;html=1;" parent="1" vertex="1">
          <mxGeometry x="200" y="100" width="70" height="30" as="geometry" />
        </mxCell>
        <mxCell id="AQF8qApTiSd5VkZApyqo-3" value="&lt;u&gt;&lt;font style=&quot;font-size: 10px;&quot; color=&quot;#006600&quot;&gt;&lt;b&gt;All KMs:&lt;br&gt;Locked&lt;br&gt;&lt;/b&gt;&lt;/font&gt;&lt;/u&gt;" style="rounded=0;orthogonalLoop=1;jettySize=auto;html=1;exitX=0;exitY=0.5;exitDx=0;exitDy=0;entryX=1;entryY=0.5;entryDx=0;entryDy=0;" parent="1" source="AQF8qApTiSd5VkZApyqo-5" target="AQF8qApTiSd5VkZApyqo-7" edge="1">
          <mxGeometry x="0.0476" y="-20" relative="1" as="geometry">
            <mxPoint x="158.25126265847098" y="204.14213562373084" as="sourcePoint" />
            <mxPoint x="123" y="240" as="targetPoint" />
            <mxPoint as="offset" />
          </mxGeometry>
        </mxCell>
        <mxCell id="OE5QwkPZC0eoHLInYiNr-3" value="&lt;font color=&quot;#ff9933&quot;&gt;tm_commit&lt;/font&gt;" style="edgeLabel;html=1;align=center;verticalAlign=middle;resizable=0;points=[];" parent="AQF8qApTiSd5VkZApyqo-3" vertex="1" connectable="0">
          <mxGeometry x="-0.2553" y="1" relative="1" as="geometry">
            <mxPoint x="-6" y="8" as="offset" />
          </mxGeometry>
        </mxCell>
        <mxCell id="AQF8qApTiSd5VkZApyqo-4" value="&lt;u&gt;&lt;font style=&quot;font-size: 10px;&quot; color=&quot;#990000&quot;&gt;&lt;b&gt;Some KM:&lt;br&gt;Not Okay&lt;/b&gt;&lt;/font&gt;&lt;/u&gt;" style="edgeStyle=none;rounded=0;orthogonalLoop=1;jettySize=auto;html=1;exitX=1;exitY=0.5;exitDx=0;exitDy=0;entryX=0;entryY=0.5;entryDx=0;entryDy=0;" parent="1" source="AQF8qApTiSd5VkZApyqo-5" target="AQF8qApTiSd5VkZApyqo-9" edge="1">
          <mxGeometry x="0.1045" y="20" relative="1" as="geometry">
            <mxPoint as="offset" />
            <mxPoint x="327" y="290" as="targetPoint" />
          </mxGeometry>
        </mxCell>
        <mxCell id="OE5QwkPZC0eoHLInYiNr-4" value="&lt;font color=&quot;#ff9933&quot;&gt;tm_abort&lt;/font&gt;" style="edgeLabel;html=1;align=center;verticalAlign=middle;resizable=0;points=[];" parent="AQF8qApTiSd5VkZApyqo-4" vertex="1" connectable="0">
          <mxGeometry x="-0.2613" y="2" relative="1" as="geometry">
            <mxPoint x="4" y="11" as="offset" />
          </mxGeometry>
        </mxCell>
        <mxCell id="AQF8qApTiSd5VkZApyqo-5" value="&lt;font style=&quot;font-size: 13px;&quot; color=&quot;#004c99&quot;&gt;Prepared&lt;/font&gt;" style="ellipse;whiteSpace=wrap;html=1;strokeColor=#004C99;" parent="1" vertex="1">
          <mxGeometry x="200" y="170" width="70" height="40" as="geometry" />
        </mxCell>
        <mxCell id="AQF8qApTiSd5VkZApyqo-6" value="&lt;b style=&quot;font-size: 10px;&quot;&gt;&lt;u&gt;All KMs:&lt;br&gt;Committed&lt;/u&gt;&lt;br&gt;&lt;/b&gt;" style="edgeStyle=orthogonalEdgeStyle;curved=1;rounded=0;orthogonalLoop=1;jettySize=auto;html=1;entryX=0;entryY=0.5;entryDx=0;entryDy=0;exitX=0.5;exitY=0;exitDx=0;exitDy=0;" parent="1" source="AQF8qApTiSd5VkZApyqo-7" target="AQF8qApTiSd5VkZApyqo-2" edge="1">
          <mxGeometry x="0.1308" relative="1" as="geometry">
            <Array as="points">
              <mxPoint x="75" y="115" />
            </Array>
            <mxPoint x="50" y="110" as="sourcePoint" />
            <mxPoint as="offset" />
          </mxGeometry>
        </mxCell>
        <mxCell id="OE5QwkPZC0eoHLInYiNr-2" value="&lt;font color=&quot;#ff9933&quot;&gt;tm_ready_c&lt;/font&gt;" style="edgeLabel;html=1;align=center;verticalAlign=middle;resizable=0;points=[];" parent="AQF8qApTiSd5VkZApyqo-6" vertex="1" connectable="0">
          <mxGeometry x="-0.5741" y="-7" relative="1" as="geometry">
            <mxPoint y="7" as="offset" />
          </mxGeometry>
        </mxCell>
        <mxCell id="AQF8qApTiSd5VkZApyqo-7" value="&lt;font style=&quot;font-size: 13px;&quot; color=&quot;#006600&quot;&gt;Committed&lt;/font&gt;" style="ellipse;whiteSpace=wrap;html=1;strokeColor=#00CC00;" parent="1" vertex="1">
          <mxGeometry x="40" y="170" width="70" height="40" as="geometry" />
        </mxCell>
        <mxCell id="AQF8qApTiSd5VkZApyqo-8" value="&lt;b style=&quot;font-size: 10px;&quot;&gt;&lt;u&gt;All KMs:&lt;br&gt;Aborted&lt;/u&gt;&lt;br&gt;&lt;/b&gt;" style="edgeStyle=orthogonalEdgeStyle;curved=1;rounded=0;orthogonalLoop=1;jettySize=auto;html=1;entryX=1;entryY=0.5;entryDx=0;entryDy=0;exitX=0.5;exitY=0;exitDx=0;exitDy=0;" parent="1" source="AQF8qApTiSd5VkZApyqo-9" target="AQF8qApTiSd5VkZApyqo-2" edge="1">
          <mxGeometry x="0.2211" relative="1" as="geometry">
            <Array as="points">
              <mxPoint x="395" y="115" />
            </Array>
            <mxPoint x="397" y="150" as="sourcePoint" />
            <mxPoint as="offset" />
          </mxGeometry>
        </mxCell>
        <mxCell id="OE5QwkPZC0eoHLInYiNr-1" value="&lt;font color=&quot;#ff9933&quot;&gt;tm_ready_a&lt;/font&gt;" style="edgeLabel;html=1;align=center;verticalAlign=middle;resizable=0;points=[];" parent="AQF8qApTiSd5VkZApyqo-8" vertex="1" connectable="0">
          <mxGeometry x="-0.4885" y="11" relative="1" as="geometry">
            <mxPoint x="6" y="16" as="offset" />
          </mxGeometry>
        </mxCell>
        <mxCell id="AQF8qApTiSd5VkZApyqo-9" value="&lt;font style=&quot;font-size: 13px;&quot; color=&quot;#990000&quot;&gt;Aborted&lt;/font&gt;" style="ellipse;whiteSpace=wrap;html=1;strokeColor=#FF3333;" parent="1" vertex="1">
          <mxGeometry x="360" y="170" width="70" height="40" as="geometry" />
        </mxCell>
      </root>
    </mxGraphModel>
  </diagram>
  <diagram id="ihLIevASLdkZVoXt4c5R" name="2pl+2pc-km">
    <mxGraphModel dx="392" dy="548" grid="1" gridSize="10" guides="1" tooltips="1" connect="1" arrows="1" fold="1" page="1" pageScale="1" pageWidth="850" pageHeight="1100" math="0" shadow="0">
      <root>
        <mxCell id="0" />
        <mxCell id="1" parent="0" />
        <mxCell id="7E9NvU6Ac73pTd0hZiOB-10" value="" style="rounded=1;whiteSpace=wrap;html=1;fillColor=none;strokeColor=#00CC00;dashed=1;" parent="1" vertex="1">
          <mxGeometry x="100" y="230.29" width="320" height="50" as="geometry" />
        </mxCell>
        <mxCell id="W6NPUPxFNtCexeJb6ckr-11" value="" style="edgeStyle=none;rounded=0;orthogonalLoop=1;jettySize=auto;html=1;exitX=1;exitY=1;exitDx=0;exitDy=0;entryX=0.5;entryY=0;entryDx=0;entryDy=0;" parent="1" source="W6NPUPxFNtCexeJb6ckr-3" target="ntAIXWiAvW7jSA7q-v0S-17" edge="1">
          <mxGeometry x="0.1337" y="-12" relative="1" as="geometry">
            <mxPoint y="-1" as="offset" />
            <mxPoint x="325" y="315" as="sourcePoint" />
            <mxPoint x="530" y="395" as="targetPoint" />
          </mxGeometry>
        </mxCell>
        <mxCell id="ntAIXWiAvW7jSA7q-v0S-2" value="" style="edgeStyle=none;rounded=0;orthogonalLoop=1;jettySize=auto;html=1;exitX=1;exitY=1;exitDx=0;exitDy=0;entryX=0.5;entryY=0;entryDx=0;entryDy=0;" parent="1" source="ntAIXWiAvW7jSA7q-v0S-3" target="ntAIXWiAvW7jSA7q-v0S-12" edge="1">
          <mxGeometry relative="1" as="geometry" />
        </mxCell>
        <mxCell id="kgT08zMZN2_Ggx-axRmt-1" value="&lt;font color=&quot;#ff00ff&quot;&gt;Lock not available&lt;/font&gt;" style="edgeLabel;html=1;align=center;verticalAlign=middle;resizable=0;points=[];" parent="ntAIXWiAvW7jSA7q-v0S-2" vertex="1" connectable="0">
          <mxGeometry x="-0.3452" y="2" relative="1" as="geometry">
            <mxPoint x="19" y="-1" as="offset" />
          </mxGeometry>
        </mxCell>
        <mxCell id="7E9NvU6Ac73pTd0hZiOB-5" value="&lt;font color=&quot;#ff9933&quot;&gt;nok&lt;/font&gt;" style="edgeLabel;html=1;align=center;verticalAlign=middle;resizable=0;points=[];" parent="ntAIXWiAvW7jSA7q-v0S-2" vertex="1" connectable="0">
          <mxGeometry x="0.389" y="1" relative="1" as="geometry">
            <mxPoint y="2" as="offset" />
          </mxGeometry>
        </mxCell>
        <mxCell id="7E9NvU6Ac73pTd0hZiOB-4" value="&lt;font color=&quot;#ff9933&quot;&gt;acquire_no_lock&lt;/font&gt;" style="edgeStyle=orthogonalEdgeStyle;rounded=0;orthogonalLoop=1;jettySize=auto;html=1;exitX=0;exitY=1;exitDx=0;exitDy=0;entryX=0.5;entryY=0;entryDx=0;entryDy=0;" parent="1" source="ntAIXWiAvW7jSA7q-v0S-3" target="W6NPUPxFNtCexeJb6ckr-5" edge="1">
          <mxGeometry x="-0.2337" y="10" relative="1" as="geometry">
            <mxPoint x="2" y="3" as="offset" />
          </mxGeometry>
        </mxCell>
        <mxCell id="ntAIXWiAvW7jSA7q-v0S-3" value="&lt;font style=&quot;font-size: 13px;&quot;&gt;Prepared&lt;/font&gt;" style="ellipse;whiteSpace=wrap;html=1;" parent="1" vertex="1">
          <mxGeometry x="360" y="160" width="70" height="40" as="geometry" />
        </mxCell>
        <mxCell id="ntAIXWiAvW7jSA7q-v0S-5" style="edgeStyle=orthogonalEdgeStyle;curved=1;rounded=0;orthogonalLoop=1;jettySize=auto;html=1;exitX=0;exitY=0.5;exitDx=0;exitDy=0;entryX=0;entryY=1;entryDx=0;entryDy=0;" parent="1" source="ntAIXWiAvW7jSA7q-v0S-10" target="ntAIXWiAvW7jSA7q-v0S-10" edge="1">
          <mxGeometry relative="1" as="geometry">
            <mxPoint x="210" y="125" as="targetPoint" />
          </mxGeometry>
        </mxCell>
        <mxCell id="ntAIXWiAvW7jSA7q-v0S-28" value="&lt;span style=&quot;color: rgb(0, 0, 0); font-family: Helvetica; font-size: 11px; font-style: normal; font-variant-ligatures: normal; font-variant-caps: normal; letter-spacing: normal; orphans: 2; text-align: center; text-indent: 0px; text-transform: none; widows: 2; word-spacing: 0px; -webkit-text-stroke-width: 0px;&quot;&gt;&lt;font style=&quot;&quot; color=&quot;#004c99&quot;&gt;&lt;u style=&quot;&quot;&gt;TM: Prepared&lt;/u&gt;&lt;/font&gt;&lt;/span&gt;" style="edgeStyle=orthogonalEdgeStyle;rounded=0;orthogonalLoop=1;jettySize=auto;html=1;exitX=1;exitY=0.5;exitDx=0;exitDy=0;entryX=0;entryY=0.5;entryDx=0;entryDy=0;" parent="1" source="ntAIXWiAvW7jSA7q-v0S-10" target="ntAIXWiAvW7jSA7q-v0S-3" edge="1">
          <mxGeometry y="10" relative="1" as="geometry">
            <mxPoint x="370" y="30" as="sourcePoint" />
            <mxPoint x="430" y="140" as="targetPoint" />
            <mxPoint as="offset" />
          </mxGeometry>
        </mxCell>
        <mxCell id="G-jAxjkmvrZRObOhtlVX-1" value="&lt;font color=&quot;#ff9933&quot;&gt;prepare&lt;/font&gt;" style="edgeLabel;html=1;align=center;verticalAlign=middle;resizable=0;points=[];" parent="ntAIXWiAvW7jSA7q-v0S-28" vertex="1" connectable="0">
          <mxGeometry x="-0.1556" y="-3" relative="1" as="geometry">
            <mxPoint y="4" as="offset" />
          </mxGeometry>
        </mxCell>
        <mxCell id="ntAIXWiAvW7jSA7q-v0S-10" value="&lt;font style=&quot;font-size: 13px;&quot;&gt;Working&lt;/font&gt;" style="ellipse;whiteSpace=wrap;html=1;" parent="1" vertex="1">
          <mxGeometry x="110" y="160" width="70" height="40" as="geometry" />
        </mxCell>
        <mxCell id="ntAIXWiAvW7jSA7q-v0S-11" value="" style="edgeStyle=none;rounded=0;orthogonalLoop=1;jettySize=auto;html=1;entryX=0.5;entryY=0;entryDx=0;entryDy=0;" parent="1" source="ntAIXWiAvW7jSA7q-v0S-12" target="ntAIXWiAvW7jSA7q-v0S-17" edge="1">
          <mxGeometry x="-0.1765" y="15" relative="1" as="geometry">
            <mxPoint as="offset" />
          </mxGeometry>
        </mxCell>
        <mxCell id="ntAIXWiAvW7jSA7q-v0S-12" value="&lt;font style=&quot;font-size: 13px;&quot; color=&quot;#990000&quot;&gt;Not Okay&lt;/font&gt;" style="ellipse;whiteSpace=wrap;html=1;strokeColor=#FF3333;" parent="1" vertex="1">
          <mxGeometry x="475" y="235.29" width="70" height="40" as="geometry" />
        </mxCell>
        <mxCell id="ntAIXWiAvW7jSA7q-v0S-13" value="" style="edgeStyle=none;rounded=0;orthogonalLoop=1;jettySize=auto;html=1;entryX=0.5;entryY=0;entryDx=0;entryDy=0;exitX=0;exitY=1;exitDx=0;exitDy=0;" parent="1" source="W6NPUPxFNtCexeJb6ckr-5" target="ntAIXWiAvW7jSA7q-v0S-16" edge="1">
          <mxGeometry relative="1" as="geometry">
            <mxPoint x="285" y="300" as="sourcePoint" />
          </mxGeometry>
        </mxCell>
        <mxCell id="ntAIXWiAvW7jSA7q-v0S-14" value="" style="edgeStyle=none;rounded=0;orthogonalLoop=1;jettySize=auto;html=1;entryX=0.5;entryY=0;entryDx=0;entryDy=0;exitX=1;exitY=1;exitDx=0;exitDy=0;" parent="1" source="W6NPUPxFNtCexeJb6ckr-5" target="ntAIXWiAvW7jSA7q-v0S-17" edge="1">
          <mxGeometry x="0.1337" y="-12" relative="1" as="geometry">
            <mxPoint y="-1" as="offset" />
            <mxPoint x="355" y="240" as="sourcePoint" />
          </mxGeometry>
        </mxCell>
        <mxCell id="ntAIXWiAvW7jSA7q-v0S-16" value="&lt;font style=&quot;font-size: 13px;&quot;&gt;Committed&lt;/font&gt;" style="ellipse;whiteSpace=wrap;html=1;strokeColor=#000000;" parent="1" vertex="1">
          <mxGeometry x="110" y="340" width="70" height="40" as="geometry" />
        </mxCell>
        <mxCell id="ntAIXWiAvW7jSA7q-v0S-17" value="&lt;font style=&quot;font-size: 13px;&quot;&gt;Aborted&lt;/font&gt;" style="ellipse;whiteSpace=wrap;html=1;strokeColor=#000000;" parent="1" vertex="1">
          <mxGeometry x="475" y="340" width="70" height="40" as="geometry" />
        </mxCell>
        <mxCell id="W6NPUPxFNtCexeJb6ckr-1" value="" style="shape=curlyBracket;whiteSpace=wrap;html=1;rounded=1;strokeColor=#00CC00;" parent="1" vertex="1">
          <mxGeometry x="90" y="230.29" width="20" height="50" as="geometry" />
        </mxCell>
        <mxCell id="W6NPUPxFNtCexeJb6ckr-2" value="&lt;font style=&quot;&quot; color=&quot;#00cc00&quot;&gt;&lt;span style=&quot;font-size: 11px;&quot;&gt;Locked&lt;/span&gt;&lt;br&gt;&lt;span style=&quot;font-size: 11px;&quot;&gt;(Okay) &lt;/span&gt;&lt;br&gt;&lt;font style=&quot;font-size: 12px;&quot;&gt;states&lt;/font&gt;&lt;/font&gt;" style="text;html=1;align=center;verticalAlign=middle;resizable=0;points=[];autosize=1;strokeColor=none;fillColor=none;" parent="1" vertex="1">
          <mxGeometry x="40" y="225.29" width="60" height="60" as="geometry" />
        </mxCell>
        <mxCell id="W6NPUPxFNtCexeJb6ckr-3" value="&lt;font style=&quot;font-size: 13px;&quot; color=&quot;#006600&quot;&gt;Read Lock&lt;/font&gt;" style="ellipse;whiteSpace=wrap;html=1;strokeColor=#00CC00;" parent="1" vertex="1">
          <mxGeometry x="110" y="235.29" width="70" height="40" as="geometry" />
        </mxCell>
        <mxCell id="W6NPUPxFNtCexeJb6ckr-4" value="&lt;font style=&quot;font-size: 13px;&quot; color=&quot;#006600&quot;&gt;Write Lock&lt;/font&gt;" style="ellipse;whiteSpace=wrap;html=1;strokeColor=#00CC00;" parent="1" vertex="1">
          <mxGeometry x="220" y="235.29" width="70" height="40" as="geometry" />
        </mxCell>
        <mxCell id="W6NPUPxFNtCexeJb6ckr-5" value="&lt;font style=&quot;font-size: 13px;&quot; color=&quot;#006600&quot;&gt;No Lock&lt;/font&gt;" style="ellipse;whiteSpace=wrap;html=1;strokeColor=#00CC00;" parent="1" vertex="1">
          <mxGeometry x="335" y="235.29" width="70" height="40" as="geometry" />
        </mxCell>
        <mxCell id="W6NPUPxFNtCexeJb6ckr-7" value="" style="rounded=0;orthogonalLoop=1;jettySize=auto;html=1;exitX=0;exitY=1;exitDx=0;exitDy=0;strokeColor=#000000;entryX=0.5;entryY=0;entryDx=0;entryDy=0;" parent="1" source="ntAIXWiAvW7jSA7q-v0S-3" target="W6NPUPxFNtCexeJb6ckr-3" edge="1">
          <mxGeometry x="0.0606" y="-13" relative="1" as="geometry">
            <mxPoint x="360.251262658471" y="204.14213562373084" as="sourcePoint" />
            <mxPoint x="240" y="275" as="targetPoint" />
            <mxPoint as="offset" />
            <Array as="points" />
          </mxGeometry>
        </mxCell>
        <mxCell id="7E9NvU6Ac73pTd0hZiOB-1" value="&lt;font color=&quot;#ff9933&quot;&gt;acquire_rd_lock&lt;/font&gt;" style="edgeLabel;html=1;align=center;verticalAlign=middle;resizable=0;points=[];" parent="W6NPUPxFNtCexeJb6ckr-7" vertex="1" connectable="0">
          <mxGeometry x="0.5039" y="-1" relative="1" as="geometry">
            <mxPoint x="-11" y="-2" as="offset" />
          </mxGeometry>
        </mxCell>
        <mxCell id="W6NPUPxFNtCexeJb6ckr-9" value="" style="edgeStyle=none;rounded=0;orthogonalLoop=1;jettySize=auto;html=1;exitX=0.5;exitY=1;exitDx=0;exitDy=0;entryX=0.5;entryY=0;entryDx=0;entryDy=0;" parent="1" source="W6NPUPxFNtCexeJb6ckr-3" target="ntAIXWiAvW7jSA7q-v0S-16" edge="1">
          <mxGeometry x="-0.32" y="-13" relative="1" as="geometry">
            <mxPoint x="140" y="315" as="sourcePoint" />
            <mxPoint x="195" y="390" as="targetPoint" />
            <mxPoint as="offset" />
          </mxGeometry>
        </mxCell>
        <mxCell id="W6NPUPxFNtCexeJb6ckr-8" value="&lt;font style=&quot;&quot; color=&quot;#ff9933&quot;&gt;commit&lt;/font&gt;&lt;br&gt;&lt;font style=&quot;&quot; color=&quot;#ff00ff&quot;&gt;Lock released&lt;/font&gt;&lt;br&gt;&lt;font style=&quot;text-decoration-line: underline;&quot; color=&quot;#006600&quot;&gt;TM: Committed&lt;/font&gt;" style="edgeStyle=none;rounded=0;orthogonalLoop=1;jettySize=auto;html=1;entryX=0.5;entryY=0;entryDx=0;entryDy=0;exitX=0.5;exitY=1;exitDx=0;exitDy=0;" parent="1" source="W6NPUPxFNtCexeJb6ckr-4" target="ntAIXWiAvW7jSA7q-v0S-16" edge="1">
          <mxGeometry x="0.2889" y="-8" relative="1" as="geometry">
            <mxPoint x="206.25126265847075" y="279.1421356237312" as="sourcePoint" />
            <mxPoint x="210" y="400" as="targetPoint" />
            <mxPoint as="offset" />
          </mxGeometry>
        </mxCell>
        <mxCell id="W6NPUPxFNtCexeJb6ckr-6" value="&lt;font color=&quot;#ff00ff&quot;&gt;Lock acquired&lt;/font&gt;" style="rounded=0;orthogonalLoop=1;jettySize=auto;html=1;exitX=0;exitY=1;exitDx=0;exitDy=0;strokeColor=#000000;entryX=0.5;entryY=0;entryDx=0;entryDy=0;fillColor=#f5f5f5;" parent="1" source="ntAIXWiAvW7jSA7q-v0S-3" target="W6NPUPxFNtCexeJb6ckr-4" edge="1">
          <mxGeometry x="-0.1944" y="-11" relative="1" as="geometry">
            <mxPoint x="360.251262658471" y="204.14213562373084" as="sourcePoint" />
            <mxPoint x="310" y="275" as="targetPoint" />
            <mxPoint as="offset" />
          </mxGeometry>
        </mxCell>
        <mxCell id="7E9NvU6Ac73pTd0hZiOB-2" value="&lt;font color=&quot;#ff9933&quot;&gt;acquire_wr_lock&lt;/font&gt;" style="edgeLabel;html=1;align=center;verticalAlign=middle;resizable=0;points=[];" parent="W6NPUPxFNtCexeJb6ckr-6" vertex="1" connectable="0">
          <mxGeometry x="0.3524" y="-2" relative="1" as="geometry">
            <mxPoint x="2" y="1" as="offset" />
          </mxGeometry>
        </mxCell>
        <mxCell id="W6NPUPxFNtCexeJb6ckr-10" value="&lt;font style=&quot;&quot;&gt;&lt;font style=&quot;&quot; color=&quot;#ff9933&quot;&gt;abort&lt;/font&gt;&lt;br&gt;&lt;font style=&quot;&quot; color=&quot;#ff00ff&quot;&gt;Lock released&lt;/font&gt;&lt;br&gt;&lt;u style=&quot;&quot;&gt;&lt;font color=&quot;#990000&quot;&gt;TM:Aborted&lt;/font&gt;&lt;/u&gt;&lt;/font&gt;" style="edgeStyle=none;rounded=0;orthogonalLoop=1;jettySize=auto;html=1;exitX=1;exitY=1;exitDx=0;exitDy=0;entryX=0.5;entryY=0;entryDx=0;entryDy=0;" parent="1" source="W6NPUPxFNtCexeJb6ckr-4" target="ntAIXWiAvW7jSA7q-v0S-17" edge="1">
          <mxGeometry x="0.7682" y="23" relative="1" as="geometry">
            <mxPoint as="offset" />
            <mxPoint x="419.748737341529" y="309.14213562373084" as="sourcePoint" />
            <mxPoint x="515" y="380" as="targetPoint" />
          </mxGeometry>
        </mxCell>
      </root>
    </mxGraphModel>
  </diagram>
  <diagram id="Bf80gznRNXisdEgicm2Q" name="2pl+2pc-km-new">
    <mxGraphModel dx="794" dy="557" grid="1" gridSize="10" guides="1" tooltips="1" connect="1" arrows="1" fold="1" page="1" pageScale="1" pageWidth="850" pageHeight="1100" math="0" shadow="0">
      <root>
        <mxCell id="0" />
        <mxCell id="1" parent="0" />
        <mxCell id="BioxWUrTm7QjMU6oJTtN-1" value="" style="rounded=0;orthogonalLoop=1;jettySize=auto;html=1;exitX=0;exitY=1;exitDx=0;exitDy=0;entryX=0.5;entryY=0;entryDx=0;entryDy=0;" parent="1" source="BioxWUrTm7QjMU6oJTtN-3" target="BioxWUrTm7QjMU6oJTtN-15" edge="1">
          <mxGeometry x="-0.3565" y="9" relative="1" as="geometry">
            <mxPoint as="offset" />
          </mxGeometry>
        </mxCell>
        <mxCell id="BioxWUrTm7QjMU6oJTtN-2" value="" style="edgeStyle=none;rounded=0;orthogonalLoop=1;jettySize=auto;html=1;exitX=1;exitY=1;exitDx=0;exitDy=0;entryX=0.5;entryY=0;entryDx=0;entryDy=0;" parent="1" source="BioxWUrTm7QjMU6oJTtN-3" target="BioxWUrTm7QjMU6oJTtN-12" edge="1">
          <mxGeometry relative="1" as="geometry" />
        </mxCell>
        <mxCell id="BioxWUrTm7QjMU6oJTtN-3" value="Prepared" style="ellipse;whiteSpace=wrap;html=1;" parent="1" vertex="1">
          <mxGeometry x="110" y="225" width="70" height="40" as="geometry" />
        </mxCell>
        <mxCell id="BioxWUrTm7QjMU6oJTtN-4" value="&lt;u&gt;&lt;b&gt;&lt;font color=&quot;#004c99&quot;&gt;TM: Prepared&lt;/font&gt;&lt;/b&gt;&lt;/u&gt;" style="edgeStyle=orthogonalEdgeStyle;curved=1;rounded=0;orthogonalLoop=1;jettySize=auto;html=1;exitX=0;exitY=1;exitDx=0;exitDy=0;entryX=0;entryY=0;entryDx=0;entryDy=0;" parent="1" source="BioxWUrTm7QjMU6oJTtN-10" target="BioxWUrTm7QjMU6oJTtN-3" edge="1">
          <mxGeometry x="0.3118" y="-20" relative="1" as="geometry">
            <Array as="points">
              <mxPoint x="80" y="119" />
              <mxPoint x="80" y="231" />
            </Array>
            <mxPoint as="offset" />
          </mxGeometry>
        </mxCell>
        <mxCell id="BioxWUrTm7QjMU6oJTtN-5" style="edgeStyle=orthogonalEdgeStyle;curved=1;rounded=0;orthogonalLoop=1;jettySize=auto;html=1;exitX=0;exitY=0.5;exitDx=0;exitDy=0;entryX=0;entryY=1;entryDx=0;entryDy=0;" parent="1" source="BioxWUrTm7QjMU6oJTtN-10" target="BioxWUrTm7QjMU6oJTtN-10" edge="1">
          <mxGeometry relative="1" as="geometry">
            <mxPoint x="80" y="145" as="targetPoint" />
          </mxGeometry>
        </mxCell>
        <mxCell id="BioxWUrTm7QjMU6oJTtN-6" value="&lt;font style=&quot;font-size: 9px;&quot;&gt;Read&lt;/font&gt;" style="edgeStyle=orthogonalEdgeStyle;rounded=0;orthogonalLoop=1;jettySize=auto;html=1;exitX=1;exitY=1;exitDx=0;exitDy=0;entryX=0.5;entryY=0;entryDx=0;entryDy=0;curved=1;" parent="1" source="BioxWUrTm7QjMU6oJTtN-10" target="BioxWUrTm7QjMU6oJTtN-25" edge="1">
          <mxGeometry x="-0.2044" y="-6" relative="1" as="geometry">
            <mxPoint as="offset" />
          </mxGeometry>
        </mxCell>
        <mxCell id="BioxWUrTm7QjMU6oJTtN-7" value="&lt;font style=&quot;font-size: 9px;&quot;&gt;Write&lt;/font&gt;" style="edgeStyle=orthogonalEdgeStyle;curved=1;rounded=0;orthogonalLoop=1;jettySize=auto;html=1;exitX=0.5;exitY=1;exitDx=0;exitDy=0;entryX=0.5;entryY=0;entryDx=0;entryDy=0;" parent="1" source="BioxWUrTm7QjMU6oJTtN-10" target="BioxWUrTm7QjMU6oJTtN-20" edge="1">
          <mxGeometry x="-0.3333" y="5" relative="1" as="geometry">
            <mxPoint as="offset" />
          </mxGeometry>
        </mxCell>
        <mxCell id="BioxWUrTm7QjMU6oJTtN-8" style="edgeStyle=orthogonalEdgeStyle;curved=1;rounded=0;orthogonalLoop=1;jettySize=auto;html=1;exitX=1;exitY=0.5;exitDx=0;exitDy=0;entryX=1;entryY=0;entryDx=0;entryDy=0;" parent="1" source="BioxWUrTm7QjMU6oJTtN-10" target="BioxWUrTm7QjMU6oJTtN-12" edge="1">
          <mxGeometry relative="1" as="geometry">
            <Array as="points">
              <mxPoint x="300" y="105" />
              <mxPoint x="300" y="291" />
            </Array>
          </mxGeometry>
        </mxCell>
        <mxCell id="BioxWUrTm7QjMU6oJTtN-9" value="no write/read lock" style="edgeLabel;html=1;align=center;verticalAlign=middle;resizable=0;points=[];fontColor=#9933FF;" parent="BioxWUrTm7QjMU6oJTtN-8" vertex="1" connectable="0">
          <mxGeometry x="-0.1579" y="-24" relative="1" as="geometry">
            <mxPoint x="34" y="-4" as="offset" />
          </mxGeometry>
        </mxCell>
        <mxCell id="BioxWUrTm7QjMU6oJTtN-10" value="Init" style="ellipse;whiteSpace=wrap;html=1;" parent="1" vertex="1">
          <mxGeometry x="110" y="85" width="70" height="40" as="geometry" />
        </mxCell>
        <mxCell id="BioxWUrTm7QjMU6oJTtN-11" value="&lt;u&gt;&lt;font color=&quot;#990000&quot;&gt;&lt;b&gt;TM:Aborted&lt;/b&gt;&lt;/font&gt;&lt;/u&gt;" style="edgeStyle=none;rounded=0;orthogonalLoop=1;jettySize=auto;html=1;entryX=0.5;entryY=0;entryDx=0;entryDy=0;" parent="1" source="BioxWUrTm7QjMU6oJTtN-12" target="BioxWUrTm7QjMU6oJTtN-17" edge="1">
          <mxGeometry x="-0.3333" relative="1" as="geometry">
            <mxPoint as="offset" />
          </mxGeometry>
        </mxCell>
        <mxCell id="BioxWUrTm7QjMU6oJTtN-12" value="Not Okay" style="ellipse;whiteSpace=wrap;html=1;strokeColor=#FF3333;" parent="1" vertex="1">
          <mxGeometry x="180" y="285" width="70" height="40" as="geometry" />
        </mxCell>
        <mxCell id="BioxWUrTm7QjMU6oJTtN-13" value="&lt;u&gt;&lt;font color=&quot;#006600&quot;&gt;&lt;b&gt;TM: Committed&lt;/b&gt;&lt;/font&gt;&lt;/u&gt;" style="edgeStyle=none;rounded=0;orthogonalLoop=1;jettySize=auto;html=1;exitX=0.5;exitY=1;exitDx=0;exitDy=0;entryX=0.5;entryY=0;entryDx=0;entryDy=0;" parent="1" source="BioxWUrTm7QjMU6oJTtN-15" target="BioxWUrTm7QjMU6oJTtN-16" edge="1">
          <mxGeometry relative="1" as="geometry" />
        </mxCell>
        <mxCell id="BioxWUrTm7QjMU6oJTtN-14" value="&lt;u&gt;&lt;font color=&quot;#990000&quot;&gt;&lt;b&gt;TM:Aborted&lt;/b&gt;&lt;/font&gt;&lt;/u&gt;" style="edgeStyle=none;rounded=0;orthogonalLoop=1;jettySize=auto;html=1;exitX=1;exitY=1;exitDx=0;exitDy=0;entryX=0.5;entryY=0;entryDx=0;entryDy=0;" parent="1" source="BioxWUrTm7QjMU6oJTtN-15" target="BioxWUrTm7QjMU6oJTtN-17" edge="1">
          <mxGeometry x="-0.1761" y="9" relative="1" as="geometry">
            <mxPoint as="offset" />
          </mxGeometry>
        </mxCell>
        <mxCell id="BioxWUrTm7QjMU6oJTtN-15" value="Okay" style="ellipse;whiteSpace=wrap;html=1;strokeColor=#00CC00;" parent="1" vertex="1">
          <mxGeometry x="40" y="285" width="70" height="40" as="geometry" />
        </mxCell>
        <mxCell id="BioxWUrTm7QjMU6oJTtN-16" value="Committed" style="ellipse;whiteSpace=wrap;html=1;strokeColor=#00CC00;" parent="1" vertex="1">
          <mxGeometry x="40" y="355" width="70" height="40" as="geometry" />
        </mxCell>
        <mxCell id="BioxWUrTm7QjMU6oJTtN-17" value="Aborted" style="ellipse;whiteSpace=wrap;html=1;strokeColor=#FF3333;" parent="1" vertex="1">
          <mxGeometry x="180" y="355" width="70" height="40" as="geometry" />
        </mxCell>
        <mxCell id="BioxWUrTm7QjMU6oJTtN-18" value="&lt;b&gt;KM&lt;/b&gt;" style="text;html=1;align=center;verticalAlign=middle;resizable=0;points=[];autosize=1;strokeColor=none;fontSize=13;" parent="1" vertex="1">
          <mxGeometry x="125" y="30" width="40" height="30" as="geometry" />
        </mxCell>
        <mxCell id="BioxWUrTm7QjMU6oJTtN-19" value="&lt;u style=&quot;color: rgb(0, 0, 0); font-family: Helvetica; font-size: 11px; font-style: normal; font-variant-ligatures: normal; font-variant-caps: normal; font-weight: 400; letter-spacing: normal; orphans: 2; text-align: center; text-indent: 0px; text-transform: none; widows: 2; word-spacing: 0px; -webkit-text-stroke-width: 0px;&quot;&gt;&lt;b&gt;&lt;font color=&quot;#004c99&quot;&gt;TM: Prepared&lt;/font&gt;&lt;/b&gt;&lt;/u&gt;" style="edgeStyle=orthogonalEdgeStyle;curved=1;rounded=0;orthogonalLoop=1;jettySize=auto;html=1;exitX=0.5;exitY=1;exitDx=0;exitDy=0;entryX=0.5;entryY=0;entryDx=0;entryDy=0;" parent="1" source="BioxWUrTm7QjMU6oJTtN-20" target="BioxWUrTm7QjMU6oJTtN-3" edge="1">
          <mxGeometry x="-0.3333" y="15" relative="1" as="geometry">
            <mxPoint as="offset" />
          </mxGeometry>
        </mxCell>
        <mxCell id="BioxWUrTm7QjMU6oJTtN-20" value="Write Lock" style="ellipse;whiteSpace=wrap;html=1;" parent="1" vertex="1">
          <mxGeometry x="110" y="155" width="70" height="40" as="geometry" />
        </mxCell>
        <mxCell id="BioxWUrTm7QjMU6oJTtN-21" value="&lt;font style=&quot;font-size: 9px;&quot;&gt;Write&lt;/font&gt;" style="edgeStyle=orthogonalEdgeStyle;curved=1;rounded=0;orthogonalLoop=1;jettySize=auto;html=1;exitX=0;exitY=0.5;exitDx=0;exitDy=0;entryX=1;entryY=0.5;entryDx=0;entryDy=0;" parent="1" source="BioxWUrTm7QjMU6oJTtN-25" target="BioxWUrTm7QjMU6oJTtN-20" edge="1">
          <mxGeometry x="-0.5" y="-10" relative="1" as="geometry">
            <mxPoint as="offset" />
          </mxGeometry>
        </mxCell>
        <mxCell id="BioxWUrTm7QjMU6oJTtN-22" value="&lt;font color=&quot;#9933ff&quot;&gt;no write lock&lt;/font&gt;" style="edgeStyle=orthogonalEdgeStyle;rounded=0;orthogonalLoop=1;jettySize=auto;html=1;exitX=1;exitY=1;exitDx=0;exitDy=0;entryX=0.696;entryY=0.063;entryDx=0;entryDy=0;entryPerimeter=0;curved=1;" parent="1" source="BioxWUrTm7QjMU6oJTtN-25" target="BioxWUrTm7QjMU6oJTtN-12" edge="1">
          <mxGeometry x="0.0781" y="5" relative="1" as="geometry">
            <mxPoint as="offset" />
          </mxGeometry>
        </mxCell>
        <mxCell id="BioxWUrTm7QjMU6oJTtN-23" style="edgeStyle=orthogonalEdgeStyle;curved=1;rounded=0;orthogonalLoop=1;jettySize=auto;html=1;exitX=0;exitY=1;exitDx=0;exitDy=0;entryX=1;entryY=0;entryDx=0;entryDy=0;" parent="1" source="BioxWUrTm7QjMU6oJTtN-25" target="BioxWUrTm7QjMU6oJTtN-3" edge="1">
          <mxGeometry relative="1" as="geometry">
            <Array as="points">
              <mxPoint x="210" y="225" />
              <mxPoint x="210" y="231" />
            </Array>
          </mxGeometry>
        </mxCell>
        <mxCell id="BioxWUrTm7QjMU6oJTtN-24" value="&lt;u&gt;&lt;b&gt;&lt;font color=&quot;#004c99&quot;&gt;TM: Prepared&lt;/font&gt;&lt;/b&gt;&lt;/u&gt;" style="edgeLabel;html=1;align=center;verticalAlign=middle;resizable=0;points=[];" parent="BioxWUrTm7QjMU6oJTtN-23" vertex="1" connectable="0">
          <mxGeometry x="-0.297" y="1" relative="1" as="geometry">
            <mxPoint x="-10" y="-1" as="offset" />
          </mxGeometry>
        </mxCell>
        <mxCell id="BioxWUrTm7QjMU6oJTtN-25" value="Read Lock" style="ellipse;whiteSpace=wrap;html=1;" parent="1" vertex="1">
          <mxGeometry x="220" y="155" width="70" height="40" as="geometry" />
        </mxCell>
      </root>
    </mxGraphModel>
  </diagram>
  <diagram id="SKDxIRCxbzearN8mvtZk" name="2pl+2pc-color">
    <mxGraphModel dx="794" dy="557" grid="1" gridSize="10" guides="1" tooltips="1" connect="1" arrows="1" fold="1" page="1" pageScale="1" pageWidth="850" pageHeight="1100" math="0" shadow="0">
      <root>
        <mxCell id="0" />
        <mxCell id="1" parent="0" />
        <mxCell id="3SGacmFrV5_CyBr9eYx1-1" style="edgeStyle=orthogonalEdgeStyle;rounded=0;orthogonalLoop=1;jettySize=auto;html=1;exitX=0.5;exitY=1;exitDx=0;exitDy=0;entryX=0.5;entryY=0;entryDx=0;entryDy=0;" parent="1" source="3SGacmFrV5_CyBr9eYx1-3" target="3SGacmFrV5_CyBr9eYx1-8" edge="1">
          <mxGeometry relative="1" as="geometry" />
        </mxCell>
        <mxCell id="3SGacmFrV5_CyBr9eYx1-2" value="&lt;font color=&quot;#ff9933&quot;&gt;user_commit&lt;/font&gt;" style="edgeLabel;html=1;align=center;verticalAlign=middle;resizable=0;points=[];" parent="3SGacmFrV5_CyBr9eYx1-1" vertex="1" connectable="0">
          <mxGeometry x="-0.2533" relative="1" as="geometry">
            <mxPoint as="offset" />
          </mxGeometry>
        </mxCell>
        <mxCell id="3SGacmFrV5_CyBr9eYx1-3" value="Init" style="ellipse;whiteSpace=wrap;html=1;" parent="1" vertex="1">
          <mxGeometry x="260" y="110" width="70" height="30" as="geometry" />
        </mxCell>
        <mxCell id="3SGacmFrV5_CyBr9eYx1-4" value="&lt;u&gt;&lt;font style=&quot;font-size: 10px;&quot; color=&quot;#006600&quot;&gt;&lt;b&gt;All KMs:&lt;br&gt;Locked&lt;br&gt;&lt;/b&gt;&lt;/font&gt;&lt;/u&gt;" style="rounded=0;orthogonalLoop=1;jettySize=auto;html=1;exitX=0;exitY=0.5;exitDx=0;exitDy=0;entryX=1;entryY=0.5;entryDx=0;entryDy=0;" parent="1" source="3SGacmFrV5_CyBr9eYx1-8" target="3SGacmFrV5_CyBr9eYx1-11" edge="1">
          <mxGeometry x="0.0476" y="-20" relative="1" as="geometry">
            <mxPoint x="243.25126265847098" y="214.14213562373084" as="sourcePoint" />
            <mxPoint x="208" y="250" as="targetPoint" />
            <mxPoint as="offset" />
          </mxGeometry>
        </mxCell>
        <mxCell id="3SGacmFrV5_CyBr9eYx1-5" value="&lt;font color=&quot;#ff9933&quot;&gt;tm_commit&lt;/font&gt;" style="edgeLabel;html=1;align=center;verticalAlign=middle;resizable=0;points=[];" parent="3SGacmFrV5_CyBr9eYx1-4" vertex="1" connectable="0">
          <mxGeometry x="-0.2553" y="1" relative="1" as="geometry">
            <mxPoint x="-6" y="8" as="offset" />
          </mxGeometry>
        </mxCell>
        <mxCell id="3SGacmFrV5_CyBr9eYx1-6" value="&lt;u&gt;&lt;font style=&quot;font-size: 10px;&quot; color=&quot;#990000&quot;&gt;&lt;b&gt;Some KM:&lt;br&gt;Not Okay&lt;/b&gt;&lt;/font&gt;&lt;/u&gt;" style="edgeStyle=none;rounded=0;orthogonalLoop=1;jettySize=auto;html=1;exitX=1;exitY=0.5;exitDx=0;exitDy=0;entryX=0;entryY=0.5;entryDx=0;entryDy=0;" parent="1" source="3SGacmFrV5_CyBr9eYx1-8" target="3SGacmFrV5_CyBr9eYx1-14" edge="1">
          <mxGeometry x="0.1045" y="20" relative="1" as="geometry">
            <mxPoint as="offset" />
            <mxPoint x="412" y="300" as="targetPoint" />
          </mxGeometry>
        </mxCell>
        <mxCell id="3SGacmFrV5_CyBr9eYx1-7" value="&lt;font color=&quot;#ff9933&quot;&gt;tm_abort&lt;/font&gt;" style="edgeLabel;html=1;align=center;verticalAlign=middle;resizable=0;points=[];" parent="3SGacmFrV5_CyBr9eYx1-6" vertex="1" connectable="0">
          <mxGeometry x="-0.2613" y="2" relative="1" as="geometry">
            <mxPoint x="4" y="11" as="offset" />
          </mxGeometry>
        </mxCell>
        <mxCell id="3SGacmFrV5_CyBr9eYx1-8" value="&lt;font style=&quot;font-size: 13px;&quot; color=&quot;#004c99&quot;&gt;Prepared&lt;/font&gt;" style="ellipse;whiteSpace=wrap;html=1;strokeColor=#004C99;" parent="1" vertex="1">
          <mxGeometry x="260" y="180" width="70" height="40" as="geometry" />
        </mxCell>
        <mxCell id="3SGacmFrV5_CyBr9eYx1-9" value="&lt;b style=&quot;font-size: 10px;&quot;&gt;&lt;u&gt;All KMs:&lt;br&gt;Committed&lt;/u&gt;&lt;br&gt;&lt;/b&gt;" style="edgeStyle=orthogonalEdgeStyle;curved=1;rounded=0;orthogonalLoop=1;jettySize=auto;html=1;entryX=0;entryY=0.5;entryDx=0;entryDy=0;exitX=0.5;exitY=0;exitDx=0;exitDy=0;" parent="1" source="3SGacmFrV5_CyBr9eYx1-11" target="3SGacmFrV5_CyBr9eYx1-3" edge="1">
          <mxGeometry x="0.1308" relative="1" as="geometry">
            <Array as="points">
              <mxPoint x="115" y="125" />
            </Array>
            <mxPoint x="135" y="120" as="sourcePoint" />
            <mxPoint as="offset" />
          </mxGeometry>
        </mxCell>
        <mxCell id="3SGacmFrV5_CyBr9eYx1-10" value="&lt;font color=&quot;#ff9933&quot;&gt;tm_ready_c&lt;/font&gt;" style="edgeLabel;html=1;align=center;verticalAlign=middle;resizable=0;points=[];" parent="3SGacmFrV5_CyBr9eYx1-9" vertex="1" connectable="0">
          <mxGeometry x="-0.5741" y="-7" relative="1" as="geometry">
            <mxPoint y="14" as="offset" />
          </mxGeometry>
        </mxCell>
        <mxCell id="3SGacmFrV5_CyBr9eYx1-11" value="&lt;font style=&quot;font-size: 13px;&quot; color=&quot;#006600&quot;&gt;Committed&lt;/font&gt;" style="ellipse;whiteSpace=wrap;html=1;strokeColor=#00CC00;" parent="1" vertex="1">
          <mxGeometry x="80" y="180" width="70" height="40" as="geometry" />
        </mxCell>
        <mxCell id="3SGacmFrV5_CyBr9eYx1-12" value="&lt;b style=&quot;font-size: 10px;&quot;&gt;&lt;u&gt;All KMs:&lt;br&gt;Aborted&lt;/u&gt;&lt;br&gt;&lt;/b&gt;" style="edgeStyle=orthogonalEdgeStyle;curved=1;rounded=0;orthogonalLoop=1;jettySize=auto;html=1;entryX=1;entryY=0.5;entryDx=0;entryDy=0;exitX=0.5;exitY=0;exitDx=0;exitDy=0;" parent="1" source="3SGacmFrV5_CyBr9eYx1-14" target="3SGacmFrV5_CyBr9eYx1-3" edge="1">
          <mxGeometry x="0.2211" relative="1" as="geometry">
            <Array as="points">
              <mxPoint x="480" y="125" />
            </Array>
            <mxPoint x="482" y="160" as="sourcePoint" />
            <mxPoint as="offset" />
          </mxGeometry>
        </mxCell>
        <mxCell id="3SGacmFrV5_CyBr9eYx1-13" value="&lt;font color=&quot;#ff9933&quot;&gt;tm_ready_a&lt;/font&gt;" style="edgeLabel;html=1;align=center;verticalAlign=middle;resizable=0;points=[];" parent="3SGacmFrV5_CyBr9eYx1-12" vertex="1" connectable="0">
          <mxGeometry x="-0.4885" y="11" relative="1" as="geometry">
            <mxPoint x="6" y="24" as="offset" />
          </mxGeometry>
        </mxCell>
        <mxCell id="3SGacmFrV5_CyBr9eYx1-14" value="&lt;font style=&quot;font-size: 13px;&quot; color=&quot;#990000&quot;&gt;Aborted&lt;/font&gt;" style="ellipse;whiteSpace=wrap;html=1;strokeColor=#FF3333;" parent="1" vertex="1">
          <mxGeometry x="445" y="180" width="70" height="40" as="geometry" />
        </mxCell>
        <mxCell id="e7HN4eyUOoJzDosyAQWX-1" value="" style="rounded=1;whiteSpace=wrap;html=1;fillColor=none;strokeColor=#00CC00;dashed=1;" parent="1" vertex="1">
          <mxGeometry x="70" y="330.28999999999996" width="320" height="50" as="geometry" />
        </mxCell>
        <mxCell id="e7HN4eyUOoJzDosyAQWX-2" value="" style="edgeStyle=none;rounded=0;orthogonalLoop=1;jettySize=auto;html=1;exitX=1;exitY=1;exitDx=0;exitDy=0;entryX=0.5;entryY=0;entryDx=0;entryDy=0;" parent="1" source="e7HN4eyUOoJzDosyAQWX-20" target="e7HN4eyUOoJzDosyAQWX-17" edge="1">
          <mxGeometry x="0.1337" y="-12" relative="1" as="geometry">
            <mxPoint y="-1" as="offset" />
            <mxPoint x="295" y="415" as="sourcePoint" />
            <mxPoint x="500" y="495" as="targetPoint" />
          </mxGeometry>
        </mxCell>
        <mxCell id="e7HN4eyUOoJzDosyAQWX-3" value="" style="edgeStyle=none;rounded=0;orthogonalLoop=1;jettySize=auto;html=1;exitX=1;exitY=1;exitDx=0;exitDy=0;entryX=0.5;entryY=0;entryDx=0;entryDy=0;" parent="1" source="e7HN4eyUOoJzDosyAQWX-7" target="e7HN4eyUOoJzDosyAQWX-13" edge="1">
          <mxGeometry relative="1" as="geometry" />
        </mxCell>
        <mxCell id="e7HN4eyUOoJzDosyAQWX-4" value="&lt;font color=&quot;#ff00ff&quot;&gt;Lock not available&lt;/font&gt;" style="edgeLabel;html=1;align=center;verticalAlign=middle;resizable=0;points=[];" parent="e7HN4eyUOoJzDosyAQWX-3" vertex="1" connectable="0">
          <mxGeometry x="-0.3452" y="2" relative="1" as="geometry">
            <mxPoint x="19" y="-1" as="offset" />
          </mxGeometry>
        </mxCell>
        <mxCell id="e7HN4eyUOoJzDosyAQWX-5" value="&lt;font color=&quot;#ff9933&quot;&gt;nok&lt;/font&gt;" style="edgeLabel;html=1;align=center;verticalAlign=middle;resizable=0;points=[];" parent="e7HN4eyUOoJzDosyAQWX-3" vertex="1" connectable="0">
          <mxGeometry x="0.389" y="1" relative="1" as="geometry">
            <mxPoint y="2" as="offset" />
          </mxGeometry>
        </mxCell>
        <mxCell id="e7HN4eyUOoJzDosyAQWX-6" value="&lt;font color=&quot;#ff9933&quot;&gt;acquire_no_lock&lt;/font&gt;" style="edgeStyle=orthogonalEdgeStyle;rounded=0;orthogonalLoop=1;jettySize=auto;html=1;exitX=0;exitY=1;exitDx=0;exitDy=0;entryX=0.5;entryY=0;entryDx=0;entryDy=0;" parent="1" source="e7HN4eyUOoJzDosyAQWX-7" target="e7HN4eyUOoJzDosyAQWX-22" edge="1">
          <mxGeometry x="-0.2337" y="10" relative="1" as="geometry">
            <mxPoint x="2" y="3" as="offset" />
          </mxGeometry>
        </mxCell>
        <mxCell id="e7HN4eyUOoJzDosyAQWX-7" value="&lt;font style=&quot;font-size: 13px;&quot;&gt;Prepared&lt;/font&gt;" style="ellipse;whiteSpace=wrap;html=1;" parent="1" vertex="1">
          <mxGeometry x="330" y="260" width="70" height="40" as="geometry" />
        </mxCell>
        <mxCell id="e7HN4eyUOoJzDosyAQWX-8" style="edgeStyle=orthogonalEdgeStyle;curved=1;rounded=0;orthogonalLoop=1;jettySize=auto;html=1;exitX=0;exitY=0.5;exitDx=0;exitDy=0;entryX=0;entryY=1;entryDx=0;entryDy=0;" parent="1" source="e7HN4eyUOoJzDosyAQWX-11" target="e7HN4eyUOoJzDosyAQWX-11" edge="1">
          <mxGeometry relative="1" as="geometry">
            <mxPoint x="180" y="225" as="targetPoint" />
          </mxGeometry>
        </mxCell>
        <mxCell id="e7HN4eyUOoJzDosyAQWX-9" value="&lt;span style=&quot;color: rgb(0, 0, 0); font-family: Helvetica; font-size: 11px; font-style: normal; font-variant-ligatures: normal; font-variant-caps: normal; letter-spacing: normal; orphans: 2; text-align: center; text-indent: 0px; text-transform: none; widows: 2; word-spacing: 0px; -webkit-text-stroke-width: 0px;&quot;&gt;&lt;font style=&quot;&quot; color=&quot;#004c99&quot;&gt;&lt;u style=&quot;&quot;&gt;TM: Prepared&lt;/u&gt;&lt;/font&gt;&lt;/span&gt;" style="edgeStyle=orthogonalEdgeStyle;rounded=0;orthogonalLoop=1;jettySize=auto;html=1;exitX=1;exitY=0.5;exitDx=0;exitDy=0;entryX=0;entryY=0.5;entryDx=0;entryDy=0;" parent="1" source="e7HN4eyUOoJzDosyAQWX-11" target="e7HN4eyUOoJzDosyAQWX-7" edge="1">
          <mxGeometry y="10" relative="1" as="geometry">
            <mxPoint x="340" y="130" as="sourcePoint" />
            <mxPoint x="400" y="240" as="targetPoint" />
            <mxPoint as="offset" />
          </mxGeometry>
        </mxCell>
        <mxCell id="e7HN4eyUOoJzDosyAQWX-10" value="&lt;font color=&quot;#ff9933&quot;&gt;prepare&lt;/font&gt;" style="edgeLabel;html=1;align=center;verticalAlign=middle;resizable=0;points=[];" parent="e7HN4eyUOoJzDosyAQWX-9" vertex="1" connectable="0">
          <mxGeometry x="-0.1556" y="-3" relative="1" as="geometry">
            <mxPoint y="4" as="offset" />
          </mxGeometry>
        </mxCell>
        <mxCell id="e7HN4eyUOoJzDosyAQWX-11" value="&lt;font style=&quot;font-size: 13px;&quot;&gt;Working&lt;/font&gt;" style="ellipse;whiteSpace=wrap;html=1;" parent="1" vertex="1">
          <mxGeometry x="80" y="260" width="70" height="40" as="geometry" />
        </mxCell>
        <mxCell id="e7HN4eyUOoJzDosyAQWX-12" value="" style="edgeStyle=none;rounded=0;orthogonalLoop=1;jettySize=auto;html=1;entryX=0.5;entryY=0;entryDx=0;entryDy=0;" parent="1" source="e7HN4eyUOoJzDosyAQWX-13" target="e7HN4eyUOoJzDosyAQWX-17" edge="1">
          <mxGeometry x="-0.1765" y="15" relative="1" as="geometry">
            <mxPoint as="offset" />
          </mxGeometry>
        </mxCell>
        <mxCell id="e7HN4eyUOoJzDosyAQWX-13" value="&lt;font style=&quot;font-size: 13px;&quot; color=&quot;#990000&quot;&gt;Not Okay&lt;/font&gt;" style="ellipse;whiteSpace=wrap;html=1;strokeColor=#FF3333;" parent="1" vertex="1">
          <mxGeometry x="445" y="335.28999999999996" width="70" height="40" as="geometry" />
        </mxCell>
        <mxCell id="e7HN4eyUOoJzDosyAQWX-14" value="" style="edgeStyle=none;rounded=0;orthogonalLoop=1;jettySize=auto;html=1;entryX=0.5;entryY=0;entryDx=0;entryDy=0;exitX=0;exitY=1;exitDx=0;exitDy=0;" parent="1" source="e7HN4eyUOoJzDosyAQWX-22" target="e7HN4eyUOoJzDosyAQWX-16" edge="1">
          <mxGeometry relative="1" as="geometry">
            <mxPoint x="255" y="400" as="sourcePoint" />
          </mxGeometry>
        </mxCell>
        <mxCell id="e7HN4eyUOoJzDosyAQWX-15" value="" style="edgeStyle=none;rounded=0;orthogonalLoop=1;jettySize=auto;html=1;entryX=0.5;entryY=0;entryDx=0;entryDy=0;exitX=1;exitY=1;exitDx=0;exitDy=0;" parent="1" source="e7HN4eyUOoJzDosyAQWX-22" target="e7HN4eyUOoJzDosyAQWX-17" edge="1">
          <mxGeometry x="0.1337" y="-12" relative="1" as="geometry">
            <mxPoint y="-1" as="offset" />
            <mxPoint x="325" y="340" as="sourcePoint" />
          </mxGeometry>
        </mxCell>
        <mxCell id="e7HN4eyUOoJzDosyAQWX-16" value="&lt;font style=&quot;font-size: 13px;&quot;&gt;Committed&lt;/font&gt;" style="ellipse;whiteSpace=wrap;html=1;strokeColor=#000000;" parent="1" vertex="1">
          <mxGeometry x="80" y="440" width="70" height="40" as="geometry" />
        </mxCell>
        <mxCell id="e7HN4eyUOoJzDosyAQWX-17" value="&lt;font style=&quot;font-size: 13px;&quot;&gt;Aborted&lt;/font&gt;" style="ellipse;whiteSpace=wrap;html=1;strokeColor=#000000;" parent="1" vertex="1">
          <mxGeometry x="445" y="440" width="70" height="40" as="geometry" />
        </mxCell>
        <mxCell id="e7HN4eyUOoJzDosyAQWX-18" value="" style="shape=curlyBracket;whiteSpace=wrap;html=1;rounded=1;strokeColor=#00CC00;" parent="1" vertex="1">
          <mxGeometry x="60" y="330.28999999999996" width="20" height="50" as="geometry" />
        </mxCell>
        <mxCell id="e7HN4eyUOoJzDosyAQWX-19" value="&lt;font style=&quot;&quot; color=&quot;#00cc00&quot;&gt;&lt;span style=&quot;font-size: 11px;&quot;&gt;Locked&lt;/span&gt;&lt;br&gt;&lt;span style=&quot;font-size: 11px;&quot;&gt;(Okay) &lt;/span&gt;&lt;br&gt;&lt;font style=&quot;font-size: 12px;&quot;&gt;states&lt;/font&gt;&lt;/font&gt;" style="text;html=1;align=center;verticalAlign=middle;resizable=0;points=[];autosize=1;strokeColor=none;fillColor=none;" parent="1" vertex="1">
          <mxGeometry x="10" y="325.28999999999996" width="60" height="60" as="geometry" />
        </mxCell>
        <mxCell id="e7HN4eyUOoJzDosyAQWX-20" value="&lt;font style=&quot;font-size: 13px;&quot; color=&quot;#006600&quot;&gt;Read Lock&lt;/font&gt;" style="ellipse;whiteSpace=wrap;html=1;strokeColor=#00CC00;" parent="1" vertex="1">
          <mxGeometry x="80" y="335.28999999999996" width="70" height="40" as="geometry" />
        </mxCell>
        <mxCell id="e7HN4eyUOoJzDosyAQWX-21" value="&lt;font style=&quot;font-size: 13px;&quot; color=&quot;#006600&quot;&gt;Write Lock&lt;/font&gt;" style="ellipse;whiteSpace=wrap;html=1;strokeColor=#00CC00;" parent="1" vertex="1">
          <mxGeometry x="190" y="335.28999999999996" width="70" height="40" as="geometry" />
        </mxCell>
        <mxCell id="e7HN4eyUOoJzDosyAQWX-22" value="&lt;font style=&quot;font-size: 13px;&quot; color=&quot;#006600&quot;&gt;No Lock&lt;/font&gt;" style="ellipse;whiteSpace=wrap;html=1;strokeColor=#00CC00;" parent="1" vertex="1">
          <mxGeometry x="305" y="335.28999999999996" width="70" height="40" as="geometry" />
        </mxCell>
        <mxCell id="e7HN4eyUOoJzDosyAQWX-23" value="" style="rounded=0;orthogonalLoop=1;jettySize=auto;html=1;exitX=0;exitY=1;exitDx=0;exitDy=0;strokeColor=#000000;entryX=0.5;entryY=0;entryDx=0;entryDy=0;" parent="1" source="e7HN4eyUOoJzDosyAQWX-7" target="e7HN4eyUOoJzDosyAQWX-20" edge="1">
          <mxGeometry x="0.0606" y="-13" relative="1" as="geometry">
            <mxPoint x="330.251262658471" y="304.14213562373084" as="sourcePoint" />
            <mxPoint x="210" y="375" as="targetPoint" />
            <mxPoint as="offset" />
            <Array as="points" />
          </mxGeometry>
        </mxCell>
        <mxCell id="e7HN4eyUOoJzDosyAQWX-24" value="&lt;font color=&quot;#ff9933&quot;&gt;acquire_rd_lock&lt;/font&gt;" style="edgeLabel;html=1;align=center;verticalAlign=middle;resizable=0;points=[];" parent="e7HN4eyUOoJzDosyAQWX-23" vertex="1" connectable="0">
          <mxGeometry x="0.5039" y="-1" relative="1" as="geometry">
            <mxPoint x="-11" y="-2" as="offset" />
          </mxGeometry>
        </mxCell>
        <mxCell id="e7HN4eyUOoJzDosyAQWX-25" value="" style="edgeStyle=none;rounded=0;orthogonalLoop=1;jettySize=auto;html=1;exitX=0.5;exitY=1;exitDx=0;exitDy=0;entryX=0.5;entryY=0;entryDx=0;entryDy=0;" parent="1" source="e7HN4eyUOoJzDosyAQWX-20" target="e7HN4eyUOoJzDosyAQWX-16" edge="1">
          <mxGeometry x="-0.32" y="-13" relative="1" as="geometry">
            <mxPoint x="110" y="415" as="sourcePoint" />
            <mxPoint x="165" y="490" as="targetPoint" />
            <mxPoint as="offset" />
          </mxGeometry>
        </mxCell>
        <mxCell id="e7HN4eyUOoJzDosyAQWX-26" value="&lt;font style=&quot;&quot; color=&quot;#ff9933&quot;&gt;commit&lt;/font&gt;&lt;br&gt;&lt;font style=&quot;&quot; color=&quot;#ff00ff&quot;&gt;Lock released&lt;/font&gt;&lt;br&gt;&lt;font style=&quot;text-decoration-line: underline;&quot; color=&quot;#006600&quot;&gt;TM: Committed&lt;/font&gt;" style="edgeStyle=none;rounded=0;orthogonalLoop=1;jettySize=auto;html=1;entryX=0.5;entryY=0;entryDx=0;entryDy=0;exitX=0.5;exitY=1;exitDx=0;exitDy=0;" parent="1" source="e7HN4eyUOoJzDosyAQWX-21" target="e7HN4eyUOoJzDosyAQWX-16" edge="1">
          <mxGeometry x="0.2889" y="-8" relative="1" as="geometry">
            <mxPoint x="176.25126265847075" y="379.1421356237312" as="sourcePoint" />
            <mxPoint x="180" y="500" as="targetPoint" />
            <mxPoint as="offset" />
          </mxGeometry>
        </mxCell>
        <mxCell id="e7HN4eyUOoJzDosyAQWX-27" value="&lt;font color=&quot;#ff00ff&quot;&gt;Lock acquired&lt;/font&gt;" style="rounded=0;orthogonalLoop=1;jettySize=auto;html=1;exitX=0;exitY=1;exitDx=0;exitDy=0;strokeColor=#000000;entryX=0.5;entryY=0;entryDx=0;entryDy=0;fillColor=#f5f5f5;" parent="1" source="e7HN4eyUOoJzDosyAQWX-7" target="e7HN4eyUOoJzDosyAQWX-21" edge="1">
          <mxGeometry x="-0.1944" y="-11" relative="1" as="geometry">
            <mxPoint x="330.251262658471" y="304.14213562373084" as="sourcePoint" />
            <mxPoint x="280" y="375" as="targetPoint" />
            <mxPoint as="offset" />
          </mxGeometry>
        </mxCell>
        <mxCell id="e7HN4eyUOoJzDosyAQWX-28" value="&lt;font color=&quot;#ff9933&quot;&gt;acquire_wr_lock&lt;/font&gt;" style="edgeLabel;html=1;align=center;verticalAlign=middle;resizable=0;points=[];" parent="e7HN4eyUOoJzDosyAQWX-27" vertex="1" connectable="0">
          <mxGeometry x="0.3524" y="-2" relative="1" as="geometry">
            <mxPoint x="2" y="1" as="offset" />
          </mxGeometry>
        </mxCell>
        <mxCell id="e7HN4eyUOoJzDosyAQWX-29" value="&lt;font style=&quot;&quot;&gt;&lt;font style=&quot;&quot; color=&quot;#ff9933&quot;&gt;abort&lt;/font&gt;&lt;br&gt;&lt;font style=&quot;&quot; color=&quot;#ff00ff&quot;&gt;Lock released&lt;/font&gt;&lt;br&gt;&lt;u style=&quot;&quot;&gt;&lt;font color=&quot;#990000&quot;&gt;TM:Aborted&lt;/font&gt;&lt;/u&gt;&lt;/font&gt;" style="edgeStyle=none;rounded=0;orthogonalLoop=1;jettySize=auto;html=1;exitX=1;exitY=1;exitDx=0;exitDy=0;entryX=0.5;entryY=0;entryDx=0;entryDy=0;" parent="1" source="e7HN4eyUOoJzDosyAQWX-21" target="e7HN4eyUOoJzDosyAQWX-17" edge="1">
          <mxGeometry x="0.7682" y="23" relative="1" as="geometry">
            <mxPoint as="offset" />
            <mxPoint x="389.748737341529" y="409.14213562373084" as="sourcePoint" />
            <mxPoint x="485" y="480" as="targetPoint" />
          </mxGeometry>
        </mxCell>
        <mxCell id="e7HN4eyUOoJzDosyAQWX-30" value="&lt;b&gt;a)&lt;/b&gt;" style="text;html=1;align=center;verticalAlign=middle;resizable=0;points=[];autosize=1;strokeColor=none;fillColor=none;" parent="1" vertex="1">
          <mxGeometry x="25" y="210" width="30" height="30" as="geometry" />
        </mxCell>
        <mxCell id="e7HN4eyUOoJzDosyAQWX-31" value="&lt;b&gt;b)&lt;/b&gt;" style="text;html=1;align=center;verticalAlign=middle;resizable=0;points=[];autosize=1;strokeColor=none;fillColor=none;" parent="1" vertex="1">
          <mxGeometry x="25" y="450" width="30" height="30" as="geometry" />
        </mxCell>
      </root>
    </mxGraphModel>
  </diagram>
  <diagram name="2pl_2pc-BW" id="OPokg6DVgcFeuVYKJG1N">
    <mxGraphModel dx="392" dy="548" grid="1" gridSize="10" guides="1" tooltips="1" connect="1" arrows="1" fold="1" page="1" pageScale="1" pageWidth="850" pageHeight="1100" math="0" shadow="0">
      <root>
        <mxCell id="vKoWXZGIlEh4k2WZ8s1j-0" />
        <mxCell id="vKoWXZGIlEh4k2WZ8s1j-1" parent="vKoWXZGIlEh4k2WZ8s1j-0" />
        <mxCell id="vKoWXZGIlEh4k2WZ8s1j-2" style="edgeStyle=orthogonalEdgeStyle;rounded=0;orthogonalLoop=1;jettySize=auto;html=1;exitX=0.5;exitY=1;exitDx=0;exitDy=0;entryX=0.5;entryY=0;entryDx=0;entryDy=0;fontColor=#000000;" parent="vKoWXZGIlEh4k2WZ8s1j-1" source="vKoWXZGIlEh4k2WZ8s1j-4" target="vKoWXZGIlEh4k2WZ8s1j-9" edge="1">
          <mxGeometry relative="1" as="geometry" />
        </mxCell>
        <mxCell id="vKoWXZGIlEh4k2WZ8s1j-3" value="&lt;font&gt;user_commit&lt;/font&gt;" style="edgeLabel;html=1;align=center;verticalAlign=middle;resizable=0;points=[];fontColor=#000000;fontStyle=1" parent="vKoWXZGIlEh4k2WZ8s1j-2" vertex="1" connectable="0">
          <mxGeometry x="-0.2533" relative="1" as="geometry">
            <mxPoint as="offset" />
          </mxGeometry>
        </mxCell>
        <mxCell id="vKoWXZGIlEh4k2WZ8s1j-4" value="Init" style="ellipse;whiteSpace=wrap;html=1;fontColor=#000000;" parent="vKoWXZGIlEh4k2WZ8s1j-1" vertex="1">
          <mxGeometry x="260" y="110" width="70" height="30" as="geometry" />
        </mxCell>
        <mxCell id="vKoWXZGIlEh4k2WZ8s1j-5" value="&lt;font style=&quot;font-size: 10px;&quot;&gt;&lt;font style=&quot;&quot;&gt;&lt;u&gt;All KMs:&lt;br&gt;Locked&lt;/u&gt;&lt;/font&gt;&lt;br&gt;&lt;/font&gt;" style="rounded=0;orthogonalLoop=1;jettySize=auto;html=1;exitX=0;exitY=0.5;exitDx=0;exitDy=0;entryX=1;entryY=0.5;entryDx=0;entryDy=0;fontColor=#000000;" parent="vKoWXZGIlEh4k2WZ8s1j-1" source="vKoWXZGIlEh4k2WZ8s1j-9" target="vKoWXZGIlEh4k2WZ8s1j-12" edge="1">
          <mxGeometry x="0.0476" y="-20" relative="1" as="geometry">
            <mxPoint x="243.25126265847098" y="214.14213562373084" as="sourcePoint" />
            <mxPoint x="208" y="250" as="targetPoint" />
            <mxPoint as="offset" />
          </mxGeometry>
        </mxCell>
        <mxCell id="vKoWXZGIlEh4k2WZ8s1j-6" value="&lt;font&gt;tm_commit&lt;/font&gt;" style="edgeLabel;html=1;align=center;verticalAlign=middle;resizable=0;points=[];fontColor=#000000;fontStyle=1" parent="vKoWXZGIlEh4k2WZ8s1j-5" vertex="1" connectable="0">
          <mxGeometry x="-0.2553" y="1" relative="1" as="geometry">
            <mxPoint x="-6" y="8" as="offset" />
          </mxGeometry>
        </mxCell>
        <mxCell id="vKoWXZGIlEh4k2WZ8s1j-7" value="&lt;u&gt;&lt;font style=&quot;font-size: 10px;&quot;&gt;Some KM:&lt;br&gt;Not Okay&lt;/font&gt;&lt;/u&gt;" style="edgeStyle=none;rounded=0;orthogonalLoop=1;jettySize=auto;html=1;exitX=1;exitY=0.5;exitDx=0;exitDy=0;entryX=0;entryY=0.5;entryDx=0;entryDy=0;fontColor=#000000;" parent="vKoWXZGIlEh4k2WZ8s1j-1" source="vKoWXZGIlEh4k2WZ8s1j-9" target="vKoWXZGIlEh4k2WZ8s1j-15" edge="1">
          <mxGeometry x="0.1045" y="20" relative="1" as="geometry">
            <mxPoint as="offset" />
            <mxPoint x="412" y="300" as="targetPoint" />
          </mxGeometry>
        </mxCell>
        <mxCell id="vKoWXZGIlEh4k2WZ8s1j-8" value="&lt;font&gt;tm_abort&lt;/font&gt;" style="edgeLabel;html=1;align=center;verticalAlign=middle;resizable=0;points=[];fontColor=#000000;fontStyle=1" parent="vKoWXZGIlEh4k2WZ8s1j-7" vertex="1" connectable="0">
          <mxGeometry x="-0.2613" y="2" relative="1" as="geometry">
            <mxPoint x="4" y="11" as="offset" />
          </mxGeometry>
        </mxCell>
        <mxCell id="vKoWXZGIlEh4k2WZ8s1j-9" value="&lt;font style=&quot;font-size: 13px;&quot;&gt;Prepared&lt;/font&gt;" style="ellipse;whiteSpace=wrap;html=1;strokeColor=#000000;fontColor=#000000;" parent="vKoWXZGIlEh4k2WZ8s1j-1" vertex="1">
          <mxGeometry x="260" y="180" width="70" height="40" as="geometry" />
        </mxCell>
        <mxCell id="vKoWXZGIlEh4k2WZ8s1j-10" value="&lt;span style=&quot;font-size: 10px;&quot;&gt;&lt;u style=&quot;&quot;&gt;All KMs:&lt;br&gt;Committed&lt;/u&gt;&lt;br&gt;&lt;/span&gt;" style="edgeStyle=orthogonalEdgeStyle;curved=1;rounded=0;orthogonalLoop=1;jettySize=auto;html=1;entryX=0;entryY=0.5;entryDx=0;entryDy=0;exitX=0.5;exitY=0;exitDx=0;exitDy=0;fontColor=#000000;" parent="vKoWXZGIlEh4k2WZ8s1j-1" source="vKoWXZGIlEh4k2WZ8s1j-12" target="vKoWXZGIlEh4k2WZ8s1j-4" edge="1">
          <mxGeometry x="0.1308" relative="1" as="geometry">
            <Array as="points">
              <mxPoint x="115" y="125" />
            </Array>
            <mxPoint x="135" y="120" as="sourcePoint" />
            <mxPoint as="offset" />
          </mxGeometry>
        </mxCell>
        <mxCell id="vKoWXZGIlEh4k2WZ8s1j-11" value="&lt;font&gt;tm_ready_c&lt;/font&gt;" style="edgeLabel;html=1;align=center;verticalAlign=middle;resizable=0;points=[];fontColor=#000000;fontStyle=1" parent="vKoWXZGIlEh4k2WZ8s1j-10" vertex="1" connectable="0">
          <mxGeometry x="-0.5741" y="-7" relative="1" as="geometry">
            <mxPoint y="14" as="offset" />
          </mxGeometry>
        </mxCell>
        <mxCell id="vKoWXZGIlEh4k2WZ8s1j-12" value="&lt;font style=&quot;font-size: 13px;&quot;&gt;Committed&lt;/font&gt;" style="ellipse;whiteSpace=wrap;html=1;strokeColor=default;fontColor=#000000;" parent="vKoWXZGIlEh4k2WZ8s1j-1" vertex="1">
          <mxGeometry x="80" y="180" width="70" height="40" as="geometry" />
        </mxCell>
        <mxCell id="vKoWXZGIlEh4k2WZ8s1j-13" value="&lt;span style=&quot;font-size: 10px;&quot;&gt;&lt;u style=&quot;&quot;&gt;All KMs:&lt;br&gt;Aborted&lt;/u&gt;&lt;br&gt;&lt;/span&gt;" style="edgeStyle=orthogonalEdgeStyle;curved=1;rounded=0;orthogonalLoop=1;jettySize=auto;html=1;entryX=1;entryY=0.5;entryDx=0;entryDy=0;exitX=0.5;exitY=0;exitDx=0;exitDy=0;fontColor=#000000;" parent="vKoWXZGIlEh4k2WZ8s1j-1" source="vKoWXZGIlEh4k2WZ8s1j-15" target="vKoWXZGIlEh4k2WZ8s1j-4" edge="1">
          <mxGeometry x="0.2211" relative="1" as="geometry">
            <Array as="points">
              <mxPoint x="480" y="125" />
            </Array>
            <mxPoint x="482" y="160" as="sourcePoint" />
            <mxPoint as="offset" />
          </mxGeometry>
        </mxCell>
        <mxCell id="vKoWXZGIlEh4k2WZ8s1j-14" value="&lt;font&gt;tm_ready_a&lt;/font&gt;" style="edgeLabel;html=1;align=center;verticalAlign=middle;resizable=0;points=[];fontColor=#000000;fontStyle=1" parent="vKoWXZGIlEh4k2WZ8s1j-13" vertex="1" connectable="0">
          <mxGeometry x="-0.4885" y="11" relative="1" as="geometry">
            <mxPoint x="6" y="24" as="offset" />
          </mxGeometry>
        </mxCell>
        <mxCell id="vKoWXZGIlEh4k2WZ8s1j-15" value="&lt;font style=&quot;font-size: 13px;&quot;&gt;Aborted&lt;/font&gt;" style="ellipse;whiteSpace=wrap;html=1;strokeColor=default;fontColor=#000000;" parent="vKoWXZGIlEh4k2WZ8s1j-1" vertex="1">
          <mxGeometry x="445" y="180" width="70" height="40" as="geometry" />
        </mxCell>
        <mxCell id="vKoWXZGIlEh4k2WZ8s1j-16" value="" style="rounded=1;whiteSpace=wrap;html=1;fillColor=default;strokeColor=default;dashed=1;fontColor=#000000;" parent="vKoWXZGIlEh4k2WZ8s1j-1" vertex="1">
          <mxGeometry x="70" y="330.28999999999996" width="320" height="50" as="geometry" />
        </mxCell>
        <mxCell id="vKoWXZGIlEh4k2WZ8s1j-17" value="" style="edgeStyle=none;rounded=0;orthogonalLoop=1;jettySize=auto;html=1;exitX=1;exitY=1;exitDx=0;exitDy=0;entryX=0.5;entryY=0;entryDx=0;entryDy=0;fontColor=#000000;" parent="vKoWXZGIlEh4k2WZ8s1j-1" source="vKoWXZGIlEh4k2WZ8s1j-35" target="vKoWXZGIlEh4k2WZ8s1j-32" edge="1">
          <mxGeometry x="0.1337" y="-12" relative="1" as="geometry">
            <mxPoint y="-1" as="offset" />
            <mxPoint x="295" y="415" as="sourcePoint" />
            <mxPoint x="500" y="495" as="targetPoint" />
          </mxGeometry>
        </mxCell>
        <mxCell id="vKoWXZGIlEh4k2WZ8s1j-18" value="" style="edgeStyle=none;rounded=0;orthogonalLoop=1;jettySize=auto;html=1;exitX=1;exitY=1;exitDx=0;exitDy=0;entryX=0.5;entryY=0;entryDx=0;entryDy=0;fontColor=#000000;" parent="vKoWXZGIlEh4k2WZ8s1j-1" source="vKoWXZGIlEh4k2WZ8s1j-22" target="vKoWXZGIlEh4k2WZ8s1j-28" edge="1">
          <mxGeometry relative="1" as="geometry" />
        </mxCell>
        <mxCell id="vKoWXZGIlEh4k2WZ8s1j-19" value="&lt;font&gt;&lt;i&gt;Lock not available&lt;/i&gt;&lt;/font&gt;" style="edgeLabel;html=1;align=center;verticalAlign=middle;resizable=0;points=[];fontColor=#000000;" parent="vKoWXZGIlEh4k2WZ8s1j-18" vertex="1" connectable="0">
          <mxGeometry x="-0.3452" y="2" relative="1" as="geometry">
            <mxPoint x="19" y="-1" as="offset" />
          </mxGeometry>
        </mxCell>
        <mxCell id="vKoWXZGIlEh4k2WZ8s1j-20" value="&lt;font&gt;nok&lt;/font&gt;" style="edgeLabel;html=1;align=center;verticalAlign=middle;resizable=0;points=[];fontColor=#000000;fontStyle=1" parent="vKoWXZGIlEh4k2WZ8s1j-18" vertex="1" connectable="0">
          <mxGeometry x="0.389" y="1" relative="1" as="geometry">
            <mxPoint y="2" as="offset" />
          </mxGeometry>
        </mxCell>
        <mxCell id="vKoWXZGIlEh4k2WZ8s1j-21" value="" style="edgeStyle=orthogonalEdgeStyle;rounded=0;orthogonalLoop=1;jettySize=auto;html=1;exitX=0;exitY=1;exitDx=0;exitDy=0;entryX=0.5;entryY=0;entryDx=0;entryDy=0;fontColor=#000000;" parent="vKoWXZGIlEh4k2WZ8s1j-1" source="vKoWXZGIlEh4k2WZ8s1j-22" target="vKoWXZGIlEh4k2WZ8s1j-37" edge="1">
          <mxGeometry x="-0.2337" y="10" relative="1" as="geometry">
            <mxPoint x="2" y="3" as="offset" />
          </mxGeometry>
        </mxCell>
        <mxCell id="vKoWXZGIlEh4k2WZ8s1j-22" value="&lt;font style=&quot;font-size: 13px;&quot;&gt;Prepared&lt;/font&gt;" style="ellipse;whiteSpace=wrap;html=1;fontColor=#000000;" parent="vKoWXZGIlEh4k2WZ8s1j-1" vertex="1">
          <mxGeometry x="330" y="260" width="70" height="40" as="geometry" />
        </mxCell>
        <mxCell id="vKoWXZGIlEh4k2WZ8s1j-23" style="edgeStyle=orthogonalEdgeStyle;curved=1;rounded=0;orthogonalLoop=1;jettySize=auto;html=1;exitX=0;exitY=0.5;exitDx=0;exitDy=0;entryX=0;entryY=1;entryDx=0;entryDy=0;fontColor=#000000;" parent="vKoWXZGIlEh4k2WZ8s1j-1" source="vKoWXZGIlEh4k2WZ8s1j-26" target="vKoWXZGIlEh4k2WZ8s1j-26" edge="1">
          <mxGeometry relative="1" as="geometry">
            <mxPoint x="180" y="225" as="targetPoint" />
          </mxGeometry>
        </mxCell>
        <mxCell id="vKoWXZGIlEh4k2WZ8s1j-24" value="" style="edgeStyle=orthogonalEdgeStyle;rounded=0;orthogonalLoop=1;jettySize=auto;html=1;exitX=1;exitY=0.5;exitDx=0;exitDy=0;entryX=0;entryY=0.5;entryDx=0;entryDy=0;fontColor=#000000;" parent="vKoWXZGIlEh4k2WZ8s1j-1" source="vKoWXZGIlEh4k2WZ8s1j-26" target="vKoWXZGIlEh4k2WZ8s1j-22" edge="1">
          <mxGeometry x="-0.3333" y="-10" relative="1" as="geometry">
            <mxPoint x="340" y="130" as="sourcePoint" />
            <mxPoint x="400" y="240" as="targetPoint" />
            <mxPoint as="offset" />
          </mxGeometry>
        </mxCell>
        <mxCell id="vKoWXZGIlEh4k2WZ8s1j-25" value="&lt;font&gt;prepare&lt;br&gt;&lt;u style=&quot;--tw-border-spacing-x: 0; --tw-border-spacing-y: 0; --tw-translate-x: 0; --tw-translate-y: 0; --tw-rotate: 0; --tw-skew-x: 0; --tw-skew-y: 0; --tw-scale-x: 1; --tw-scale-y: 1; --tw-pan-x: ; --tw-pan-y: ; --tw-pinch-zoom: ; --tw-scroll-snap-strictness: proximity; --tw-ordinal: ; --tw-slashed-zero: ; --tw-numeric-figure: ; --tw-numeric-spacing: ; --tw-numeric-fraction: ; --tw-ring-inset: ; --tw-ring-offset-width: 0px; --tw-ring-offset-color: #fff; --tw-ring-color: rgb(59 130 246 / 0.5); --tw-ring-offset-shadow: 0 0 #0000; --tw-ring-shadow: 0 0 #0000; --tw-shadow: 0 0 #0000; --tw-shadow-colored: 0 0 #0000; --tw-blur: ; --tw-brightness: ; --tw-contrast: ; --tw-grayscale: ; --tw-hue-rotate: ; --tw-invert: ; --tw-saturate: ; --tw-sepia: ; --tw-drop-shadow: ; --tw-backdrop-blur: ; --tw-backdrop-brightness: ; --tw-backdrop-contrast: ; --tw-backdrop-grayscale: ; --tw-backdrop-hue-rotate: ; --tw-backdrop-invert: ; --tw-backdrop-opacity: ; --tw-backdrop-saturate: ; --tw-backdrop-sepia: ; border-color: var(--border-color); font-weight: 400;&quot;&gt;TM: Prepared&lt;/u&gt;&lt;br&gt;&lt;/font&gt;" style="edgeLabel;html=1;align=center;verticalAlign=middle;resizable=0;points=[];fontColor=#000000;fontStyle=1" parent="vKoWXZGIlEh4k2WZ8s1j-24" vertex="1" connectable="0">
          <mxGeometry x="-0.1556" y="-3" relative="1" as="geometry">
            <mxPoint x="-1" y="-8" as="offset" />
          </mxGeometry>
        </mxCell>
        <mxCell id="vKoWXZGIlEh4k2WZ8s1j-26" value="&lt;font style=&quot;font-size: 13px;&quot;&gt;Working&lt;/font&gt;" style="ellipse;whiteSpace=wrap;html=1;fontColor=#000000;" parent="vKoWXZGIlEh4k2WZ8s1j-1" vertex="1">
          <mxGeometry x="80" y="260" width="70" height="40" as="geometry" />
        </mxCell>
        <mxCell id="vKoWXZGIlEh4k2WZ8s1j-27" value="" style="edgeStyle=none;rounded=0;orthogonalLoop=1;jettySize=auto;html=1;entryX=0.5;entryY=0;entryDx=0;entryDy=0;fontColor=#000000;" parent="vKoWXZGIlEh4k2WZ8s1j-1" source="vKoWXZGIlEh4k2WZ8s1j-28" target="vKoWXZGIlEh4k2WZ8s1j-32" edge="1">
          <mxGeometry x="-0.1765" y="15" relative="1" as="geometry">
            <mxPoint as="offset" />
          </mxGeometry>
        </mxCell>
        <mxCell id="vKoWXZGIlEh4k2WZ8s1j-28" value="&lt;font style=&quot;font-size: 13px;&quot;&gt;Not Okay&lt;/font&gt;" style="ellipse;whiteSpace=wrap;html=1;strokeColor=default;fontColor=#000000;" parent="vKoWXZGIlEh4k2WZ8s1j-1" vertex="1">
          <mxGeometry x="445" y="335.28999999999996" width="70" height="40" as="geometry" />
        </mxCell>
        <mxCell id="vKoWXZGIlEh4k2WZ8s1j-29" value="" style="edgeStyle=none;rounded=0;orthogonalLoop=1;jettySize=auto;html=1;entryX=0.5;entryY=0;entryDx=0;entryDy=0;exitX=0;exitY=1;exitDx=0;exitDy=0;fontColor=#000000;" parent="vKoWXZGIlEh4k2WZ8s1j-1" source="vKoWXZGIlEh4k2WZ8s1j-37" target="vKoWXZGIlEh4k2WZ8s1j-31" edge="1">
          <mxGeometry relative="1" as="geometry">
            <mxPoint x="255" y="400" as="sourcePoint" />
          </mxGeometry>
        </mxCell>
        <mxCell id="vKoWXZGIlEh4k2WZ8s1j-30" value="" style="edgeStyle=none;rounded=0;orthogonalLoop=1;jettySize=auto;html=1;entryX=0.5;entryY=0;entryDx=0;entryDy=0;exitX=1;exitY=1;exitDx=0;exitDy=0;fontColor=#000000;" parent="vKoWXZGIlEh4k2WZ8s1j-1" source="vKoWXZGIlEh4k2WZ8s1j-37" target="vKoWXZGIlEh4k2WZ8s1j-32" edge="1">
          <mxGeometry x="0.1337" y="-12" relative="1" as="geometry">
            <mxPoint y="-1" as="offset" />
            <mxPoint x="325" y="340" as="sourcePoint" />
          </mxGeometry>
        </mxCell>
        <mxCell id="vKoWXZGIlEh4k2WZ8s1j-31" value="&lt;font style=&quot;font-size: 13px;&quot;&gt;Committed&lt;/font&gt;" style="ellipse;whiteSpace=wrap;html=1;strokeColor=default;fontColor=#000000;" parent="vKoWXZGIlEh4k2WZ8s1j-1" vertex="1">
          <mxGeometry x="80" y="440" width="70" height="40" as="geometry" />
        </mxCell>
        <mxCell id="vKoWXZGIlEh4k2WZ8s1j-32" value="&lt;font style=&quot;font-size: 13px;&quot;&gt;Aborted&lt;/font&gt;" style="ellipse;whiteSpace=wrap;html=1;strokeColor=default;fontColor=#000000;" parent="vKoWXZGIlEh4k2WZ8s1j-1" vertex="1">
          <mxGeometry x="445" y="440" width="70" height="40" as="geometry" />
        </mxCell>
        <mxCell id="vKoWXZGIlEh4k2WZ8s1j-33" value="" style="shape=curlyBracket;whiteSpace=wrap;html=1;rounded=1;strokeColor=#000000;fontColor=#000000;" parent="vKoWXZGIlEh4k2WZ8s1j-1" vertex="1">
          <mxGeometry x="60" y="330.28999999999996" width="20" height="50" as="geometry" />
        </mxCell>
        <mxCell id="vKoWXZGIlEh4k2WZ8s1j-34" value="&lt;span style=&quot;font-size: 11px;&quot;&gt;Locked&lt;/span&gt;&lt;br&gt;&lt;span style=&quot;font-size: 11px;&quot;&gt;(Okay) &lt;/span&gt;&lt;br&gt;&lt;font style=&quot;font-size: 12px;&quot;&gt;states&lt;/font&gt;" style="text;html=1;align=center;verticalAlign=middle;resizable=0;points=[];autosize=1;strokeColor=none;fillColor=none;fontColor=#000000;" parent="vKoWXZGIlEh4k2WZ8s1j-1" vertex="1">
          <mxGeometry x="10" y="325.28999999999996" width="60" height="60" as="geometry" />
        </mxCell>
        <mxCell id="vKoWXZGIlEh4k2WZ8s1j-35" value="&lt;font style=&quot;font-size: 13px;&quot;&gt;Read Lock&lt;/font&gt;" style="ellipse;whiteSpace=wrap;html=1;strokeColor=default;fontColor=#000000;" parent="vKoWXZGIlEh4k2WZ8s1j-1" vertex="1">
          <mxGeometry x="80" y="335.28999999999996" width="70" height="40" as="geometry" />
        </mxCell>
        <mxCell id="vKoWXZGIlEh4k2WZ8s1j-36" value="&lt;font style=&quot;font-size: 13px;&quot;&gt;Write Lock&lt;/font&gt;" style="ellipse;whiteSpace=wrap;html=1;strokeColor=default;fontColor=#000000;" parent="vKoWXZGIlEh4k2WZ8s1j-1" vertex="1">
          <mxGeometry x="190" y="335.28999999999996" width="70" height="40" as="geometry" />
        </mxCell>
        <mxCell id="vKoWXZGIlEh4k2WZ8s1j-37" value="&lt;font style=&quot;font-size: 13px;&quot;&gt;No Lock&lt;/font&gt;" style="ellipse;whiteSpace=wrap;html=1;strokeColor=default;fontColor=#000000;" parent="vKoWXZGIlEh4k2WZ8s1j-1" vertex="1">
          <mxGeometry x="305" y="335.28999999999996" width="70" height="40" as="geometry" />
        </mxCell>
        <mxCell id="vKoWXZGIlEh4k2WZ8s1j-38" value="" style="rounded=0;orthogonalLoop=1;jettySize=auto;html=1;exitX=0;exitY=1;exitDx=0;exitDy=0;strokeColor=#000000;entryX=0.5;entryY=0;entryDx=0;entryDy=0;fontColor=#000000;" parent="vKoWXZGIlEh4k2WZ8s1j-1" source="vKoWXZGIlEh4k2WZ8s1j-22" target="vKoWXZGIlEh4k2WZ8s1j-35" edge="1">
          <mxGeometry x="0.0606" y="-13" relative="1" as="geometry">
            <mxPoint x="330.251262658471" y="304.14213562373084" as="sourcePoint" />
            <mxPoint x="210" y="375" as="targetPoint" />
            <mxPoint as="offset" />
            <Array as="points" />
          </mxGeometry>
        </mxCell>
        <mxCell id="vKoWXZGIlEh4k2WZ8s1j-39" value="&lt;font&gt;acquire_rd_lock&lt;/font&gt;" style="edgeLabel;html=1;align=center;verticalAlign=middle;resizable=0;points=[];fontColor=#000000;fontStyle=1" parent="vKoWXZGIlEh4k2WZ8s1j-38" vertex="1" connectable="0">
          <mxGeometry x="0.5039" y="-1" relative="1" as="geometry">
            <mxPoint x="-10" y="-5" as="offset" />
          </mxGeometry>
        </mxCell>
        <mxCell id="vKoWXZGIlEh4k2WZ8s1j-40" value="" style="edgeStyle=none;rounded=0;orthogonalLoop=1;jettySize=auto;html=1;exitX=0.5;exitY=1;exitDx=0;exitDy=0;entryX=0.5;entryY=0;entryDx=0;entryDy=0;fontColor=#000000;" parent="vKoWXZGIlEh4k2WZ8s1j-1" source="vKoWXZGIlEh4k2WZ8s1j-35" target="vKoWXZGIlEh4k2WZ8s1j-31" edge="1">
          <mxGeometry x="-0.32" y="-13" relative="1" as="geometry">
            <mxPoint x="110" y="415" as="sourcePoint" />
            <mxPoint x="165" y="490" as="targetPoint" />
            <mxPoint as="offset" />
          </mxGeometry>
        </mxCell>
        <mxCell id="vKoWXZGIlEh4k2WZ8s1j-41" value="&lt;font&gt;&lt;b&gt;commit&lt;/b&gt;&lt;/font&gt;&lt;font&gt;&lt;br&gt;&lt;i&gt;Lock released&lt;/i&gt;&lt;/font&gt;&lt;br&gt;&lt;font style=&quot;text-decoration-line: underline;&quot;&gt;TM: Committed&lt;/font&gt;" style="edgeStyle=none;rounded=0;orthogonalLoop=1;jettySize=auto;html=1;entryX=0.5;entryY=0;entryDx=0;entryDy=0;exitX=0.5;exitY=1;exitDx=0;exitDy=0;fontColor=#000000;" parent="vKoWXZGIlEh4k2WZ8s1j-1" source="vKoWXZGIlEh4k2WZ8s1j-36" target="vKoWXZGIlEh4k2WZ8s1j-31" edge="1">
          <mxGeometry x="0.2889" y="-8" relative="1" as="geometry">
            <mxPoint x="176.25126265847075" y="379.1421356237312" as="sourcePoint" />
            <mxPoint x="180" y="500" as="targetPoint" />
            <mxPoint as="offset" />
          </mxGeometry>
        </mxCell>
        <mxCell id="vKoWXZGIlEh4k2WZ8s1j-42" value="&lt;font&gt;&lt;i&gt;Lock acquired&lt;/i&gt;&lt;/font&gt;" style="rounded=0;orthogonalLoop=1;jettySize=auto;html=1;exitX=0;exitY=1;exitDx=0;exitDy=0;strokeColor=#000000;entryX=0.5;entryY=0;entryDx=0;entryDy=0;fillColor=#f5f5f5;fontColor=#000000;" parent="vKoWXZGIlEh4k2WZ8s1j-1" source="vKoWXZGIlEh4k2WZ8s1j-22" target="vKoWXZGIlEh4k2WZ8s1j-36" edge="1">
          <mxGeometry x="-0.1944" y="-11" relative="1" as="geometry">
            <mxPoint x="330.251262658471" y="304.14213562373084" as="sourcePoint" />
            <mxPoint x="280" y="375" as="targetPoint" />
            <mxPoint as="offset" />
          </mxGeometry>
        </mxCell>
        <mxCell id="vKoWXZGIlEh4k2WZ8s1j-43" value="&lt;font&gt;acquire_wr_lock&lt;/font&gt;" style="edgeLabel;html=1;align=center;verticalAlign=middle;resizable=0;points=[];fontColor=#000000;fontStyle=1" parent="vKoWXZGIlEh4k2WZ8s1j-42" vertex="1" connectable="0">
          <mxGeometry x="0.3524" y="-2" relative="1" as="geometry">
            <mxPoint x="1" y="-1" as="offset" />
          </mxGeometry>
        </mxCell>
        <mxCell id="vKoWXZGIlEh4k2WZ8s1j-44" value="&lt;font style=&quot;&quot;&gt;&lt;font&gt;&lt;b&gt;abort&lt;/b&gt;&lt;/font&gt;&lt;font&gt;&lt;br&gt;&lt;i&gt;Lock released&lt;/i&gt;&lt;/font&gt;&lt;br&gt;&lt;u style=&quot;&quot;&gt;&lt;font&gt;TM:Aborted&lt;/font&gt;&lt;/u&gt;&lt;/font&gt;" style="edgeStyle=none;rounded=0;orthogonalLoop=1;jettySize=auto;html=1;exitX=1;exitY=1;exitDx=0;exitDy=0;entryX=0.5;entryY=0;entryDx=0;entryDy=0;fontColor=#000000;" parent="vKoWXZGIlEh4k2WZ8s1j-1" source="vKoWXZGIlEh4k2WZ8s1j-36" target="vKoWXZGIlEh4k2WZ8s1j-32" edge="1">
          <mxGeometry x="0.7689" y="23" relative="1" as="geometry">
            <mxPoint as="offset" />
            <mxPoint x="389.748737341529" y="409.14213562373084" as="sourcePoint" />
            <mxPoint x="485" y="480" as="targetPoint" />
          </mxGeometry>
        </mxCell>
        <mxCell id="vKoWXZGIlEh4k2WZ8s1j-45" value="&lt;b&gt;&lt;font style=&quot;font-size: 17px;&quot; face=&quot;Times New Roman&quot;&gt;a)&lt;/font&gt;&lt;/b&gt;" style="text;html=1;align=center;verticalAlign=middle;resizable=0;points=[];autosize=1;strokeColor=none;fillColor=none;fontColor=#000000;" parent="vKoWXZGIlEh4k2WZ8s1j-1" vertex="1">
          <mxGeometry x="20" y="210" width="40" height="30" as="geometry" />
        </mxCell>
        <mxCell id="vKoWXZGIlEh4k2WZ8s1j-46" value="&lt;b&gt;&lt;font style=&quot;font-size: 17px;&quot; face=&quot;Times New Roman&quot;&gt;b)&lt;/font&gt;&lt;/b&gt;" style="text;html=1;align=center;verticalAlign=middle;resizable=0;points=[];autosize=1;strokeColor=none;fillColor=none;fontColor=#000000;" parent="vKoWXZGIlEh4k2WZ8s1j-1" vertex="1">
          <mxGeometry x="20" y="450" width="40" height="30" as="geometry" />
        </mxCell>
        <mxCell id="vKoWXZGIlEh4k2WZ8s1j-47" value="&lt;font&gt;&lt;b&gt;acquire_no_lock&lt;/b&gt;&lt;/font&gt;" style="edgeStyle=orthogonalEdgeStyle;rounded=0;orthogonalLoop=1;jettySize=auto;html=1;exitX=0;exitY=1;exitDx=0;exitDy=0;entryX=0.5;entryY=0;entryDx=0;entryDy=0;fontColor=#000000;" parent="vKoWXZGIlEh4k2WZ8s1j-1" target="vKoWXZGIlEh4k2WZ8s1j-37" edge="1">
          <mxGeometry x="0.2683" y="20" relative="1" as="geometry">
            <mxPoint as="offset" />
            <mxPoint x="340" y="294" as="sourcePoint" />
            <mxPoint x="340" y="335" as="targetPoint" />
          </mxGeometry>
        </mxCell>
      </root>
    </mxGraphModel>
  </diagram>
</mxfile>
